<?xml version="1.0" encoding="UTF-8"?>
<svg id="Calque_2" data-name="Calque 2" xmlns="http://www.w3.org/2000/svg" xmlns:xlink="http://www.w3.org/1999/xlink" viewBox="0 0 15.46 26.64">
  <defs>
    <style>
      .cls-1 {
        fill: none;
      }

      .cls-2 {
        fill: #94473d;
      }

      .cls-3 {
        clip-path: url(#clippath);
      }
    </style>
    <clipPath id="clippath">
      <rect class="cls-1" width="15.46" height="26.64"/>
    </clipPath>
  </defs>
  <g id="Calque_1-2" data-name="Calque 1">
    <polygon class="cls-2" points=".19 21.17 .19 22.1 14.9 22.33 15.44 21.17 .19 21.17"/>
    <polygon class="cls-2" points=".05 23.22 .27 23.93 14.75 24.11 15.29 23.22 .05 23.22"/>
    <g class="cls-3">
      <path class="cls-2" d="M.05,25.44c-.2,0,.3.96.3.96l14.41.24.54-1.2s-12.86-.06-15.25,0"/>
      <path class="cls-2" d="M13.81,13.5c-1.21-1.41-4.17-2.33-4.17-2.33l-.45-1.21s.1-.04.14-.06c1.25.25,3.63,1.19,2.96-3.21-.2-1.34-1.68-5.59-1.86-5.81-.09-.11-3.92-1.32-5.18-.71-1.26.61-.89,4.8-2.78,7.93-1.47,2.43,2.32,1.99,4.08,1.68,0,.39-.01.84-.1,1.14-.19.61-1.45.78-1.95,1.01-.93.42-2.16,1.58-2.88,2.92-.72,1.34-1.45,4.56-1.45,4.56h15.29s-.44-4.48-1.65-5.9"/>
    </g>
  </g>
</svg>