<?xml version="1.0" encoding="UTF-8"?>
<svg id="Calque_2" data-name="Calque 2" xmlns="http://www.w3.org/2000/svg" viewBox="0 0 384 384">
  <defs>
    <style>
      .cls-1 {
        fill: #f3d3a5;
      }

      .cls-2 {
        fill: #fcfbe6;
      }
    </style>
  </defs>
  <g id="logo_et_monogramme_pastille" data-name="logo et monogramme pastille">
    <g>
      <circle class="cls-2" cx="188.21" cy="192.86" r="84.43"/>
      <g>
        <path class="cls-1" d="M185.47,142.44s-.02.06-.03.1c.01,0,.01-.02.03-.02v-.08Z"/>
        <path class="cls-1" d="M213.46,142.75s-.08.08-.14.19c-.06.13-.11.24-.14.33.04-.06.15-.25.28-.52Z"/>
        <path class="cls-1" d="M185.22,142.62c-.04.13-.1.31-.18.5-.04.09-.09.25-.16.44l.05.03c.13-.42.23-.76.29-.97Z"/>
        <path class="cls-1" d="M214.51,164.58s.02-.05.04-.13c0,0,0,.01,0,.02-.02.07-.03.11-.03.11Z"/>
        <path class="cls-1" d="M207.27,184.9s0,0,0,.01c0,0,0,.01,0,.02v-.03Z"/>
        <path class="cls-1" d="M185.39,141.33c-.02-.17-.05-.31-.09-.42v1.19c.09.17.17-.26.09-.77Z"/>
        <path class="cls-1" d="M207.27,184.76v.14c.02-.05.03-.11,0-.14Z"/>
        <path class="cls-1" d="M185.3,140.82h-.03s.02.06.03.09v-.09Z"/>
        <path class="cls-1" d="M185.13,140.82h.14c-.07-.23-.14-.28-.14,0Z"/>
        <path class="cls-1" d="M184.79,142.69l-.09.26.17-.26s.04-.04.06-.06c.03-.12.05-.22.06-.31-.07.09-.14.23-.21.37Z"/>
        <path class="cls-1" d="M185.22,142.62c.05-.16.08-.27.08-.27,0,0-.03.09-.08.27Z"/>
        <path class="cls-1" d="M184.94,142.63c-.05.21-.12.46-.24.83h0c.06-.18.12-.32.16-.43.23-.53.24-.58.06-.4Z"/>
        <polygon class="cls-1" points="185.47 142.43 185.47 142.44 185.47 142.44 185.47 142.43"/>
        <path class="cls-1" d="M185.39,142.61s0,.06,0,.07c.02-.05.03-.09.04-.13-.04.02-.05.07-.05.07Z"/>
        <path class="cls-1" d="M185.05,142.09s0,0-.01,0c0,.07-.01.14-.03.22.01-.02.03-.04.04-.06.09-.09.09-.17,0-.17Z"/>
        <path class="cls-1" d="M185.05,141.16s-.08.26-.17.6c-.26.6-.26.77-.08.51.08-.08.16-.16.24-.17.01-.14.01-.27.01-.43v-.51Z"/>
        <path class="cls-1" d="M181.04,160.49c0-.09.08-.26.08-.43s0-.17-.08-.09c0,.09-.09.26-.09.43s0,.17.09.09Z"/>
        <path class="cls-1" d="M181.3,159.64v-.26q0-.09-.09,0v.26q0,.09.09,0Z"/>
        <path class="cls-1" d="M181.73,158.53c-.08,0-.17.09-.26.34.09-.17.17-.34.26-.34Z"/>
        <path class="cls-1" d="M175.76,177.01c.06-.24.12-.48.15-.6-.23.66-.41,1.11-.41,1.11,0,.17.09,0,.26-.51Z"/>
        <path class="cls-1" d="M180.79,161.68v-.26q0-.08-.09,0v.26q0,.08.09,0Z"/>
        <path class="cls-1" d="M175.93,176.24v.09s0,.03-.02.08c.03-.08.06-.16.08-.25h-.06v.09Z"/>
        <path class="cls-1" d="M181.38,158.7c-.08.51-.08.6.08.17l-.08-.17Z"/>
        <path class="cls-1" d="M213.83,144.22c.08-.08.08-.17.08-.17,0,0-.08.09-.08.17Z"/>
        <path class="cls-1" d="M180.79,157.25s0,.07,0,.11c.02-.07.04-.15.06-.22-.05-.05-.06-.03-.06.11Z"/>
        <path class="cls-1" d="M220.98,143.2v.34q-.08.17-.08,0c0-.6-.08-.94-.26-.94-.08,0-.17.09-.26.17q-.08.08-.08-.43c0-.34-.17-.6-.34-.51,0,0-.08,0-.08-.08-.08-.17-.26-.17-.26,0v-.09c0-.26-.26-.77-.34-.77,0,0-.08.08-.17.26-.17.34-.34.17-.34-.43,0-.43-.08-.51-.17-.17-.09.26-.17.26-.09-.09.09-.34-.08-.43-.17-.08-.25.68-.34.85-.51.85q-.25,0,0-.6c.17-.26.26-.6.26-.68,0-.17-.34-.34-.68-.34-.26,0-.68.6-1.02,1.28-.09.26-.34.77-.51,1.19-.17.43-.34.77-.34.77,0,.09-.26.6-.26.6-.08,0,.68-1.7,1.11-2.55.17-.34.26-.6.17-.51-.08.08-.77,1.36-1.19,2.3-.6,1.36-.77,1.87-1.53,4.09-.85,2.38-2.04,5.62-2.81,7.49-.6,1.53-1.7,4.43-2.3,6.22-.26.68-.68,1.96-1.02,2.89-1.11,3.15-2.3,6.64-2.38,7.07v.17s0,.09-.09.17c-.08.09-.08.17-.08.17,0,0,0,.09-.09.17-.08.09-.08.17-.08.17,0,0,0,.17-.09.34-.08.17-.08.34-.08.34,0,0,0,.09-.08.17-.09.09-.09.17-.09.17,0,0,0,.09-.08.17-.08.09-.08.17-.08.17,0,0,0,.09-.09.17-.08.09-.08.17-.08.17h-.08c-.09,0-.09.09-.09.17s0,.17-.09.17v.17c0,.09,0,.17-.08.17h-.08s0,.17-.09.34c-.08.17-.08.34-.08.34,0,0,0,.09-.08.17-.09.09-.09.17-.09.17,0,0,0,.09-.09.17-.08.09-.08.17-.08.17h-.09c-.08,0-.08.09-.08.17v.17c-.08,0-.08.09-.08.17s0,.17-.09.17h-.08v.26c0,.17-.43,1.28-.85,2.38-.09.18-.18.34-.26.44,0,0,0-.02,0-.02v-.17c.08-.09,1.36-4,1.96-5.88.77-2.64,1.7-5.54,2.21-6.98.26-.77.68-2.13.94-2.98.85-2.47,1.02-2.98,1.11-3.15,0-.09.17-.68.43-1.28.26-.6.6-1.53.77-2.04.17-.51.43-1.28.6-1.7.17-.43.51-1.36.77-2.13.6-1.62,1.28-3.49,1.96-5.36.43-1.28.68-1.96.94-2.55.08-.17.17-.34.17-.34,0-.08.34-.85.85-1.87.43-.85.6-1.53.43-1.45-.17.08-1.36,2.55-1.87,3.92-.26.68-.77,2.04-1.11,3.07-.68,1.96-2.13,5.79-2.98,8-.77,1.87-1.96,5.11-2.64,7.07-.21.52-.44,1.12-.64,1.62.25-.71.49-1.41.72-2.04,1.02-2.89,1.79-4.94,2.55-6.9.85-2.21,2.21-5.88,2.81-7.75.94-2.72,1.7-4.6,2.47-5.96.34-.68.43-.94.34-.94s-.77,1.28-.77,1.36c0,0,0,.09-.08.09-.09.09.17-.51.6-1.19.17-.34.34-.68.34-.68-.17.17-.77,1.19-1.11,1.96-.04.09-.08.16-.12.23.02,0,.03,0,.03.02,0,.08-.09.26-.17.43-.08.17-.17.26-.17.17,0-.02.02-.06.03-.1-.02.02-.03.03-.03.01.08-.43,1.02-2.55,1.53-3.49.43-.85.51-1.02.43-1.02s-.17.08-.26.17q-.08.17-.08,0c0-.26-.68.6-1.19,1.53-.6,1.19-1.02,2.21-1.87,4.77-.43,1.19-.94,2.55-1.11,2.98-.17.43-.51,1.36-.77,1.96-.26.6-.68,1.7-1.02,2.38-.6,1.36-2.38,5.96-2.38,6.13,0,.08-.26.94-.6,1.87-.68,1.7-1.53,4.17-3.07,8.94-.85,2.55-1.79,5.19-1.87,5.11,0,0,.17-.6.43-1.28.26-.68.77-2.13,1.11-3.24.94-3.07,2.21-6.98,2.55-7.92.17-.51.6-1.79,1.02-2.9.94-2.64,1.62-4.51,2.38-6.39.34-.85.77-2.04,1.02-2.64.26-.6.6-1.45.77-1.87.17-.43.68-1.79,1.11-2.98.68-2.13,1.28-3.58,1.79-4.6.34-.68.09-.26-.34.51-.51,1.02-1.02,2.21-1.62,4.17-.34,1.02-.85,2.47-1.19,3.24-.34.77-.68,1.7-.85,2.04-.17.34-.6,1.28-.94,2.04-.34.77-.77,1.79-.94,2.3-.17.51-.51,1.36-.68,1.87-.17.51-.51,1.45-.68,2.04-.17.6-.6,1.7-.85,2.47-.51,1.28-1.28,3.49-2.98,8.6-1.02,2.98-1.62,4.68-2.55,6.81-.94,2.13-1.28,2.72-1.36,2.64v.09c.09.17-.08.43-.26.43s-.51-1.28-1.19-4c-.34-1.45-1.11-5.28-1.28-6.3-.08-.34-.17-.68-.17-.77s-.09-.43-.17-.77c-.08-.34-.17-.68-.17-.85,0-.26-.43-3.32-.51-3.83v-.6c-.08-.6-.17-1.11-.17-1.28-.09-.51-.17-1.28-.17-1.53s-.08-.34-.08-.09.68,6.56.85,7.75c.17,1.53.43,3.07.6,4.09.09.51.17.94.17.94-.09.09-.6-2.55-.85-4.34-.26-1.7-1.36-11.5-1.53-13.71-.17-1.62-.26-2.72-.34-6.9,0-1.79-.08-3.32-.08-3.41q-.09-.17-.17.17c0,.08-.09,0-.09-.17s-.09-.34-.17-.34-.17-.09-.17-.17c0-.26-.17-.26-.26,0,0,.17,0,.09-.08-.17-.08-.26-.17-.34-.43-.51-.17-.09-.34-.17-.34-.17,0,0-.08-.17-.17-.34-.17-.34-.26-.43-.34-.34-.09.09-.17.17-.17.26s0,.17-.08.17-.09-.17-.09-.34c0-.26-.09-.34-.26-.51-.26-.26-.34-.26-.51-.09q-.08.09-.08,0c0-.6-1.02-.77-1.28-.17-.08.17-.17.26-.34.26q-.26,0-.26-.43c0-.51-.08-1.02-.26-1.19-.09-.09-.17-.09-.43-.09h-.43c-.17,0-.43.68-.77,1.87-.03.08-.06.17-.08.26.04,0,.05,0,.07,0-.03.08-.06.16-.09.24-.02,0-.05,0-.05-.01-.09.29-.2.63-.32,1l.05.03s0,0,0,.01c-.05.25-.1.46-.13.6h.04c0-.07.06-.31.13-.58l.13.07c-.26.68-.6,1.79-.77,2.47-.17.68-.6,2.13-.94,3.15-.34,1.02-.77,2.55-1.02,3.41-.26.85-.51,1.62-.6,1.7,0,.09-.08.17-.08.17v.51s-.08.09-.17.17c-.08.09-.08.17-.08.17,0,0,0,.09-.08.17-.09.09-.09.26-.09.34s0,.09-.08,0c-.04-.04-.06-.05-.07-.05,0,.02-.01.04-.02.05,0,.02,0,.05,0,.08,0,.14,0,.16-.06.11-.07.24-.14.48-.21.73,0,0,0,0,0,0-.58,2.01-1.13,3.96-1.52,5.38-.68,2.38-.94,3.24-1.62,5.11-.43,1.28-.6,1.7-.6,1.53,0,0,.17-.51.43-1.11.43-1.19,1.11-3.32,1.53-5.02.27-1.07.84-3.12,1.5-5.41-.01.02-.02.04-.05.04q-.08,0-.08.17v.17s-.08.17-.17.34c-.21.57-.17.31.08-.64-.5,1.69-.99,3.37-1.44,4.98-.85,2.98-.94,3.32-1.62,5.28-.85,2.3-3.24,8.26-3.66,9.11l-.08.17-.17-.34c-.34-.68-1.53-3.75-2.04-5.11-.94-2.72-1.45-4-2.47-6.39-.34-.85-.51-1.19-1.11-2.64-1.02-2.72-2.73-6.81-3.15-7.75-.17-.43-.68-1.53-1.11-2.38-.43-.85-1.02-2.13-1.36-2.81-.34-.68-.68-1.36-.77-1.53-.08-.17-.26-.51-.43-.77-.34-.51-1.11-1.45-1.36-1.62-.09-.09-.26-.26-.34-.43-.17-.17-.26-.26-.26-.17s-.08,0-.17-.17c-.17-.34-.6-.77-.6-.6,0,.08-.09,0-.17-.17-.17-.26-.51-.43-.85-.43-.17,0-.34.6-.34,1.02.08.51,0,.43-.09-.17-.08-.43-.26-.6-.34-.34,0,.09-.09-.17-.17-.51-.08-.34-.17-.6-.26-.68-.08-.08-.08,0,0,.94v1.28c0,.17,0,.09-.08-.17-.08-.26-.17-.77-.17-1.11s-.09-.6-.17-.6-.08.51-.08,1.53v1.53l-.17-.68c-.08-.34-.17-.77-.17-.85-.08-.34-.08.94,0,1.28.09.17.17.94.26,1.62.09.68.26,1.45.34,1.62.08.43.43,2.47.34,2.55,0,0-.09-.09-.17-.17-.17-.17-.17-.09,0,.68.08.34.34,1.53.6,2.64.43,2.04.6,2.55,1.53,5.54.34,1.02.77,2.72,1.02,3.75.68,2.55.94,3.32,2.04,6.73,1.19,3.58,1.45,4.34,2.04,6.47,1.28,4.77,1.62,5.79,2.38,6.98.17.26.51.94.77,1.45.26.51.6,1.28.77,1.62.43.77,1.19,1.96,1.53,2.21.08.09.17.09.08,0-.17-.17-.08-.26.08-.09.09.09.17.17.17.26s0,.17.09.26c.09.09.26.34.43.6.68,1.19,1.7,2.13,2.64,2.55.34.17.68.34,1.19.6.31.15,1.43.44,2.03.5-.79.6-1.59,1.29-2.46,2.12-3.24,3.24-5.11,5.79-7.15,9.79-1.02,2.04-1.45,3.24-1.79,4.94-.77,3.66-.51,9.96.51,14.14.51,2.04,1.02,3.32,2.04,5.36l-.09-.17c1.11,2.3,1.45,2.98,1.87,3.66.26.34.6,1.02.85,1.45,1.19,2.13,2.13,3.41,3.83,5.11,2.04,2.13,4.85,4,7.41,5.11,1.96.85,2.9,1.19,3.75,1.45.51.17,1.11.34,1.36.43.26.09.51.17.6.17s.34.09.6.17c.25.09.43.17.43.17,0,0,.17.09.34.17.17.09.34.17.34.17,0,0,.08,0,.17.09.08.09.26.17.34.17h1.02c.26.09.51.09,1.02.17h.43c0,.09,3.32,0,3.66-.09h.94q.51-.09,1.02-.17h.68c.77-.17,3.07-1.11,3.15-1.28,0-.09.09-.09.09-.09.08,0,.6-.26.6-.34h.17s.08-.09.17-.09.17-.09.17-.17,0-.09.09-.09.08,0,.08-.09.08-.09.17-.09.17,0,.17-.09v-.09h.08s.34-.26.68-.51c.68-.51.85-.68,1.19-.94.08-.09.43-.34.77-.6.68-.6,1.96-1.87,2.21-2.21.08-.17.6-.85,1.11-1.53,1.11-1.28,1.53-1.96,2.64-3.75,1.02-1.79,2.73-5.19,3.32-6.81.34-.94.94-3.07,1.11-3.92.34-1.7.51-4.51.43-6.56-.08-2.38-.34-4.68-.51-4.51-.09.09-.09.51,0,1.19.17,1.7.26,5.19.09,6.81-.17,1.36-.43,2.98-.51,2.9,0,0,.08-.51.17-1.11.08-.6.17-2.04.17-3.15.09-3.24-.08-6.05-.6-8.86-.08-.6-.17-1.11-.17-1.11,0-.09.34,1.02.51,1.79.08.51.17.68.17.6.08-.17-.08-1.11-.17-1.11l-.17-.51c-.09-.26-.17-.51-.17-.51,0,0,0-.09-.08-.17-.08-.09-.17-.26-.17-.43-.17-.94-1.19-3.41-2.04-5.19-1.36-2.64-4.26-6.9-5.96-8.6-.43-.43-1.11-1.19-1.53-1.7-.73-.83-1.4-1.46-2.1-1.97.37-.48.78-1.17,1.34-2.18,1.19-2.13,2.55-5.11,2.47-5.28q0-.08.08-.08c.09.08.17-.17.09-.34q0-.09.09-.09c.08.09.17-.17.08-.34q0-.08.08-.08c.08.08.17-.17.08-.34q0-.09.09-.09c.08.09.17-.08.08-.26q0-.08.09-.08c.05.05.12-.02.16-.1-.07-.09,0-.32.09-.24.09.09.09.17.6-1.11.17-.51.34-1.02.34-1.11v-.08c.08.08.34-.68.26-.77q0-.08.08-.08c.17.08,1.45-3.92,1.36-4.17v-.17c.09.09.68-2.21.6-2.3q0-.09.08-.09c.09,0,.26-.6.51-1.53l.77-.94c.26-.85.6-2.04.77-2.64.49-1.46.8-2.62.85-3v.11s0-.17.08-.34c.09-.17.17-.26.17-.17s.08-.17.17-.51c.09-.34.17-.6.17-.68s0-.09.09-.09c.04.04.16-.22.29-.53.02-.06.04-.15.08-.26-.03.1-.05.18-.07.24.15-.38.3-.84.3-.98,0,0,0,0,0,0,.23-.76.54-1.73.77-2.38.17-.51.51-1.53.68-2.21.68-2.21,1.7-5.19,2.38-6.9.77-1.87.94-2.38,1.7-5.11.6-2.04.77-2.81.77-3.41,0-.43-.17-.68-.17-.26ZM212.89,143.63h.08q.09-.09.09,0c0,.08,0,.17-.09.26q-.08.08-.08,0v-.26ZM209.23,152.91v.17s-.17.43-.34.94c-.34.85-.43,1.02-.43.85,0-.09.77-1.96.77-1.96ZM208.46,154.95s0,.09-.09.17c0-.09.09-.17.09-.17ZM204.13,169.19c-.35,1.11-.6,1.93-.6,1.86,0-.03.24-.77.6-1.86ZM156.09,148.91c-.08-.17-.08-.34-.08-.34,0,0,.08.17.17.34.09.17.09.34.09.34,0,0-.09-.17-.17-.34ZM156.43,147.54c-.08.09-.26-.43-.26-.6,0-.09.09,0,.17.17.08.17.08.34.08.34v.09ZM196.88,183.78s-.01,0,0-.04v.04ZM197.82,183.31c0-.09.26-.6.26-.6,0-.08.34-.77.43-.77,0,0,0,.09-.09.26-.17.34-.34.6-.34.51,0,0,0,.17-.08.34v-.09c-.08.26-.17.43-.17.34ZM196.8,184.25l.06-.06c-.05.1-.08.13-.06.06ZM200.46,181.95s.05-.12.11-.27c-.06.16-.11.27-.11.27ZM198.07,181.27v-.09s.06-.06.09-.08c.03-.07.06-.14.08-.21v-.22h.08s0,0,0,0c.71-1.8,1.5-3.97,2.12-5.96.51-1.53.94-2.81.94-2.72,0,.17-1.36,4.43-1.87,5.88-.32.79-.77,2-1.11,2.86,0,.07-.01.14-.08.21-.41.98-1.01,2.32-1.32,2.97.03-.12.08-.26.13-.42.26-.54.57-1.27.91-2.1-.08.07-.14.14-.14.06,0,0,.08-.09.17-.17ZM197.8,181.92c-.06.14-.15.33-.23.54-.16.37-.35.74-.49.99.22-.48.55-1.18.72-1.53ZM197.05,182.54v.09q.51-1.02,0,.08c-.17.43-.34.77-.34.77-.08,0-.08-.08.34-.94ZM190.84,147.71l.08,3.32c.08,4,.08,4.6.77,10.9.17,1.62.26,2.98.26,3.07v.09c0-.09-.17-1.62-.34-3.41-.68-6.13-.77-7.41-.77-11.33v-2.64ZM187.52,142.09q.09-.08.09.09c0,.09,0,.17-.09.17-.09.09-.09-.08,0-.26ZM186.41,171.13c.17-.68.34-1.28.34-1.28,0,0,.08.6.26,1.28.26,1.28,1.02,4.77,1.11,4.85v.34c0,.17.09.43.09.6v.26s0,.09.08.17c.09.17.17.6.09.51,0,0-.26-.77-.51-1.7-.43-1.53-.6-2.13-.6-1.96,0,0,0,.17.08.34.08.17.34,1.02.6,1.96.85,3.41,1.62,5.96,2.13,6.9.17.34.43,1.02.6,1.53.85,2.64,1.79,4.6,2.64,5.62.08.12.17.27.27.42-.5.14-.74.11-1.38-.1-1.53-.51-3.41-.6-5.11-.34-.25,0-.6.09-.77.09-2.69.37-4.46.75-6.08,1.36.11-.24.21-.47.29-.66.68-1.7,2.38-6.98,3.32-10.39.43-1.62,1.53-5.96,1.62-6.47q0-.17.09,0c0,.09.09-.09.17-.51.08-.34.08-.68.08-.77v-.09c.09.09.17-.43.09-.6q0-.09.08-.09s.02-.03.03-.04c-.06-.28-.13-.62-.2-.98-.26-1.11-.34-1.62-.26-1.79.09-.17.17.17.43,1.62.06.34.1.66.14.94.08-.22.18-.57.28-1.03ZM189.81,193c-.68,0-1.62.09-2.04.17-.77.17-.85.17-.77.08h-.08c.08-.08,1.53-.34,2.13-.43h1.28l.77.09-1.28.09ZM190.75,193.51c-.34.07-.71.08-.86.04.23-.09.98-.2,1.12-.13.08.08,0,.08-.25.08ZM181.38,195.64c-.34.17-.51.17-.51.09,0,0,.25-.17.6-.34l.08.09c1.7-.85,5.28-1.96,6.9-2.13l.51-.09-.68.17c-.34.08-1.11.26-1.62.43-1.02.26-2.55.77-3.58,1.11-.6.17-1.02.34-1.7.68ZM182.49,195.55c-.09.08-.17.08-.26.08v-.17h.26q.08,0,0,.09ZM178.49,197.26c.08-.08.26-.17.34-.26l.17-.08-.17.17c-.08.09-.26.17-.34.26l-.17.09.17-.17ZM186.07,140.99c.09-.08,0,.09-.43,1.19-.02.06-.05.13-.08.2.22-.7.45-1.34.5-1.39ZM185.54,142.45s.01.03.01.08c0,.08,0,.17-.09.17,0,0,0,0,0,0,.03-.08.05-.16.08-.24ZM185.4,142.92s0,0,0,0c.01-.03.03-.05.07-.05h.09s0,.09-.09.17q-.08.08-.08,0s0-.08.01-.11ZM174.57,179.99s.17-.6.43-1.28c.26-.68.6-1.62.77-2.13.17-.51.6-1.7.94-2.64.14-.37.31-.87.5-1.39.89-2.7,1.48-4.7,2.31-7.89.85-3.15,1.11-4,1.96-7.07.26-.77.51-1.62.6-1.87.43-1.45,2.64-8.94,3.24-10.98.17-.51.34-.94.34-.94.17-.09-.09.94-1.28,4.94l.85-.68c-1.87,6.3-2.04,6.98-2.04,7.15v.34c0,.09-.09.43-.17.77-.08.34-.17.68-.17.77v.6l-.17.51c-.09.26-.17.43-.17.43,0,0,0,.09-.08.17-.09.09-.09.17-.09.17,0,0,0,.08-.08.17-.08.09-.08.17-.08.17,0,0-.09.26-.17.51-.08.26-.17.43-.17.43,0,0-.09.26-.17.6-.08.34-.17.6-.17.6,0,0,0,.09-.08.17-.08.09-.08.17-.08.17,0,0,0,.09-.09.17-.09.08-.09.17-.09.17,0,0,0,.17-.08.34-.09.17-.09.34-.09.34h-.08c-.08,0-.08.09-.08.17s0,.17-.09.17v.17c0,.09,0,.17-.08.17v.6c0,.26-.08.6-.17.6v.17c0,.08,0,.17-.09.26-.08.08-.08.17-.08.17.08,0-.08.51-.17.6q.09,0,0,.09c-.08.08-.17.17-.17.17,0,0,0,.17-.09.43v.43s0,.09-.08.17v.6c0,.09,0,.17-.08.17v.17c0,.08,0,.17-.09.17h-.09s0,.17-.08.34c-.08.17-.08.34-.08.34,0,0,0,.09-.09.17-.08.09-.08.17-.08.17,0,.17-.09.51-.17.51v.34c-.08,0-.08.09-.08.09h-.08c-.09,0-.09.09-.09.17v.17c-.08,0-.08.09-.08.17s0,.17-.08.17h-.09s0,.09-.08.17c-.08.09-.08.17-.08.17,0,0-.09.34-.26.77-.17.43-.26.77-.26.77,0,0,0,.09-.08.17-.09.09-.09.17-.09.17h-.08c-.09,0-.17.09-.17.17v.6h-.17v.26c0,.09-.09.26-.17.34s-.08.17-.08.17c0,0-.09.26-.17.51l-.17.51h-.09c-.09,0-.09.09-.09.17s0,.17-.08.17h-.09s0,.09-.08.09c0,0,0,0,0,0-.47,1.31-.88,2.43-1.11,2.98-.34.77-.51,1.11-.51.94ZM176.36,177.18c0,.09-.09.26-.09.34q-.08.09-.08-.09c0-.09.08-.26.08-.34q.09-.09.09.09ZM172.87,203.39c-.08.09-.17.17-.26.17s-.09,0,0-.09c.09-.09.17-.17.26-.17s.08,0,0,.09ZM175.08,200.66c-.17.17-.68.77-1.19,1.36-.85,1.11-1.28,1.53-.77.77v.09c.6-.85,2.13-2.64,2.21-2.55,0,0-.08.17-.26.34ZM176.98,198.61c.43-.4,1.06-.87,1.77-1.26.34-.26.77-.51.94-.6.34-.26,2.21-1.19,2.3-1.11,0,0-.17.09-.43.17-.6.26-2.72,1.53-3.24,1.96-.26.17-.68.51-.94.77-.55.39-.72.41-.4.07ZM194.58,239.41v-.09q.09,0,0,.09ZM199.52,236.34c-.26.17-.51.34-.51.34-.26.34-3.92,2.55-4,2.47,0,0,.26-.17.6-.34,1.19-.68,1.79-1.11,1.79-1.11,0,0-.26.09-.51.26-.77.51-2.13,1.19-2.21,1.11q-.09,0-.09.09t-.08.08c-.09,0-.26.09-.43.17-.17.08-.43.17-.51.17s-.26.09-.43.17c-.25.17-.77.34-1.62.6-.34.09-.68.17-.77.17-.17,0-.17-.17,0-.17.68-.09,4.68-1.7,5.88-2.38.34-.26.6-.34.6-.26s.77-.43.77-.6h0s.21-.1.51-.34c1.02-.77,3.07-2.72,4.26-4.09.34-.43.68-.85.77-.94.43-.51-.43.77-1.02,1.53l.43-.26c-.77.94-2.72,2.81-3.41,3.32ZM203.1,240.26q-.08,0-.08-.08c0-.09,0-.17.08-.17s.09,0,.09.09,0,.17-.09.17ZM203.27,240.09s.08-.09.17-.17c.03-.03.06-.06.09-.09h.08c-.17.17-.34.26-.34.26ZM203.83,239.53s.03-.03.03-.03c0,0-.01.01-.03.03ZM204.89,204.75c.85,1.28,1.28,2.13,1.53,3.15.43,1.62.51,2.3.68,4.51.09,1.45.09,1.87,0,3.49-.26,3.41-.85,6.05-1.79,8.09-.17.34-.43.94-.6,1.36-.43.94-.94,1.79-1.96,3.15s-1.28,1.62-2.3,2.55c-1.02.94-1.7,1.53-2.39,1.96-.77.51-2.72,1.53-3.49,1.87-.85.34-3.58,1.36-3.75,1.36h-.17s-.17,0-.34.09c-.43.17-1.96.43-2.9.51-1.79.17-3.32.17-4.94-.08h-.51c-.85-.09-2.04-.34-2.64-.51-.26-.08-1.11-3.32-1.28-5.11v-.6c-.25-1.62-.25-5.96,0-8.17.17-1.36.26-1.87.51-3.07.43-2.04,1.19-4.34,2.3-6.73.85-1.96,1.87-3.66,3.49-5.71.85-1.02,3.15-3.41,3.75-3.83.17-.17.43-.34.51-.43.08-.09.34-.26.51-.43.17-.17.34-.34.34-.34,0,0,.17-.17.34-.34.17-.17.34-.26.34-.26-.08-.08,2.3-1.19,3.32-1.53h-.17c1.53-.6,2.55-.85,3.66-.85.17,0,.34-.08.43-.17.08-.09.34-.09,1.11-.09h1.02l.43.34c1.7,1.53,3.41,3.49,4.94,5.79ZM205.82,184.84q-.09.09-.09,0v-.26q.09-.08.09,0c0,.09,0,.17-.09.26h.09ZM207.19,180.75c0-.09,0-.17.08-.26.05-.05.07-.06.08-.05-.02.17-.16.38-.16.3Z"/>
        <path class="cls-1" d="M176,176.16h.11s0-.08.08-.08c1.15-3.2,2.64-7.57,2.64-7.75,0-.09-.34.77-.77,1.87-.26.67-.58,1.55-.86,2.35-.3.9-.63,1.88-1.01,3.01-.06.21-.13.41-.19.6Z"/>
        <path class="cls-1" d="M213.57,144.73v.26q0,.09.08,0c.09-.08.09-.17.09-.26s0-.08-.09,0h-.08Z"/>
        <path class="cls-1" d="M184.96,144.48s.02-.07.04-.17h-.04v.17Z"/>
        <path class="cls-1" d="M180.78,157.36s-.02.07-.03.11c.02-.02.03-.06.03-.11Z"/>
        <path class="cls-1" d="M180.9,156.95s.03.02.06.05c.04,0,.06,0,.07-.01,0,0,0,0,0,0,.01-.01.01-.03.01-.07-.09-.17,0-.6.08-.51v-.17q0-.09.09,0s.02.02.03.03c.02-.07.04-.13.06-.2,0-.03,0-.05.02-.05.73-2.5,1.46-4.97,1.94-6.51.83-2.6,1.4-4.48,1.82-5.83l-.15-.08c-.31,1.04-.8,2.63-1.34,4.3-.59,1.87-1.72,5.66-2.7,9.06Z"/>
        <path class="cls-1" d="M180.87,157.04s.02-.06.03-.09c-.02-.01-.03.02-.03.09Z"/>
        <path class="cls-1" d="M180.87,157.08s0-.03,0-.04c0,.03-.02.07-.03.1,0,0,.02.01.03.03q.08.09,0-.09Z"/>
        <path class="cls-1" d="M184.89,143.56l-.17-.1c-.29.82-.8,2.53-2.05,6.64-1.04,3.55-1.78,6.15-2.13,7.45,1.01-3.41,2.1-6.94,3.24-10.52.4-1.35.86-2.74,1.12-3.47Z"/>
        <path class="cls-1" d="M186.24,173.09s-.04-.38-.11-.93c-.04.11-.08.18-.11.21.08.38.14.63.14.63l.09.09Z"/>
        <path class="cls-1" d="M198.07,181.35c.09-.08.17-.17.17-.26,0-.05-.04-.04-.08,0-.04.09-.07.18-.11.28,0,0,.02-.02.03-.03Z"/>
        <path class="cls-1" d="M187.35,179.05v-.26c0-.09,0-.17-.08-.17v.43h-.09c.09.17.17.17.17,0Z"/>
        <path class="cls-1" d="M198.33,180.93c.02-.06.06-.14.08-.21,0-.02,0-.03,0-.05,0-.08,0-.08-.08,0-.03.08-.06.15-.09.23v.03q0,.09.08,0Z"/>
      </g>
    </g>
    <g>
      <rect class="cls-2" width="384" height="384"/>
      <g>
        <path class="cls-1" d="M184.31,46.9c-.03.09-.06.18-.09.28.03-.02.04-.05.09-.05v-.22Z"/>
        <path class="cls-1" d="M262.99,47.78c-.09.05-.24.24-.39.54-.18.35-.32.67-.4.93.13-.17.41-.72.79-1.47Z"/>
        <path class="cls-1" d="M183.61,47.4c-.12.38-.28.86-.5,1.4-.1.25-.26.7-.45,1.25l.14.08c.36-1.19.63-2.13.81-2.73Z"/>
        <path class="cls-1" d="M265.95,109.13s.05-.14.11-.36c0,.02-.01.04-.02.05-.06.19-.09.3-.09.3Z"/>
        <path class="cls-1" d="M245.6,166.27s-.01.03-.02.04c0,.01,0,.03.02.04v-.09Z"/>
        <path class="cls-1" d="M184.07,43.77c-.07-.47-.15-.87-.24-1.19v3.35c.24.48.48-.72.24-2.16Z"/>
        <path class="cls-1" d="M245.6,165.88v.39c.06-.15.09-.3,0-.39Z"/>
        <path class="cls-1" d="M183.83,42.34h-.07c.02.07.05.16.07.24v-.24Z"/>
        <path class="cls-1" d="M183.35,42.34h.41c-.21-.64-.41-.77-.41,0Z"/>
        <path class="cls-1" d="M182.4,47.6l-.24.72.48-.72c.08-.08.12-.11.18-.18.08-.32.14-.61.18-.86-.2.26-.4.63-.6,1.04Z"/>
        <path class="cls-1" d="M183.61,47.4c.14-.45.22-.75.22-.75,0,0-.08.27-.22.75Z"/>
        <path class="cls-1" d="M182.82,47.43c-.14.58-.35,1.31-.66,2.33h.02c.18-.5.33-.89.46-1.2.64-1.49.68-1.62.18-1.13Z"/>
        <path class="cls-1" d="M184.31,46.88v.02s0-.01,0-.02c0,0,0,0,0,0Z"/>
        <path class="cls-1" d="M184.07,47.36c0,.11,0,.16.03.19.04-.14.08-.25.12-.38-.12.06-.15.19-.15.19Z"/>
        <path class="cls-1" d="M183.11,45.93s-.02.01-.04.01c-.02.2-.04.4-.08.62.04-.05.08-.12.11-.16.24-.24.24-.48,0-.48Z"/>
        <path class="cls-1" d="M183.11,43.29s-.24.72-.48,1.68c-.72,1.68-.72,2.16-.24,1.44.23-.23.45-.44.68-.46.03-.38.04-.75.04-1.21v-1.44Z"/>
        <path class="cls-1" d="M171.86,97.64c0-.24.24-.72.24-1.2s0-.48-.24-.24c0,.24-.24.72-.24,1.2s0,.48.24.24Z"/>
        <path class="cls-1" d="M172.58,95.25v-.72q0-.24-.24,0v.72q0,.24.24,0Z"/>
        <path class="cls-1" d="M173.78,92.14c-.24,0-.48.24-.72.96.24-.48.48-.96.72-.96Z"/>
        <path class="cls-1" d="M157.02,144.09c.17-.69.34-1.36.42-1.69-.64,1.87-1.14,3.13-1.14,3.13,0,.48.24,0,.72-1.44Z"/>
        <path class="cls-1" d="M171.14,100.99v-.72q0-.24-.24,0v.72q0,.24.24,0Z"/>
        <path class="cls-1" d="M157.49,141.94v.24s-.02.09-.06.22c.08-.23.16-.46.24-.7h-.18v.24Z"/>
        <path class="cls-1" d="M172.82,92.61c-.24,1.44-.24,1.68.24.48l-.24-.48Z"/>
        <path class="cls-1" d="M264.04,51.91c.24-.24.24-.48.24-.48,0,0-.24.24-.24.48Z"/>
        <path class="cls-1" d="M171.14,88.54c0,.13-.01.2-.02.3.06-.2.12-.41.18-.61-.15-.14-.16-.1-.16.31Z"/>
        <path class="cls-1" d="M284.15,49.04v.96q-.24.48-.24,0c0-1.68-.24-2.63-.72-2.63-.24,0-.48.24-.72.48q-.24.24-.24-1.2c0-.96-.48-1.68-.96-1.44,0,0-.24,0-.24-.24-.24-.48-.72-.48-.72,0v-.24c0-.72-.72-2.16-.96-2.16,0,0-.24.24-.48.72-.48.96-.96.48-.96-1.2,0-1.2-.24-1.44-.48-.48-.24.72-.48.72-.24-.24.24-.96-.24-1.2-.48-.24-.72,1.92-.96,2.39-1.44,2.39q-.72,0,0-1.68c.48-.72.72-1.68.72-1.92,0-.48-.96-.96-1.92-.96-.72,0-1.91,1.68-2.87,3.59-.24.72-.96,2.16-1.44,3.35-.48,1.2-.96,2.16-.96,2.16,0,.24-.72,1.68-.72,1.68-.24,0,1.92-4.79,3.11-7.18.48-.96.72-1.68.48-1.44-.24.24-2.16,3.83-3.35,6.46-1.68,3.83-2.15,5.27-4.31,11.49-2.39,6.7-5.75,15.8-7.9,21.07-1.68,4.31-4.79,12.45-6.46,17.48-.72,1.91-1.92,5.51-2.87,8.14-3.11,8.86-6.47,18.68-6.7,19.87v.48s0,.24-.24.48c-.24.24-.24.48-.24.48,0,0,0,.24-.24.48-.24.24-.24.48-.24.48,0,0,0,.48-.24.96-.24.48-.24.96-.24.96,0,0,0,.24-.24.48-.24.24-.24.48-.24.48,0,0,0,.24-.24.48-.24.24-.24.48-.24.48,0,0,0,.24-.24.48-.24.24-.24.48-.24.48h-.24c-.24,0-.24.24-.24.48s0,.48-.24.48v.48c0,.24,0,.48-.24.48h-.24s0,.48-.24.96c-.24.48-.24.96-.24.96,0,0,0,.24-.24.48-.24.24-.24.48-.24.48,0,0,0,.24-.24.48-.24.24-.24.48-.24.48h-.24c-.24,0-.24.24-.24.48v.48c-.24,0-.24.24-.24.48s0,.48-.24.48h-.24v.72c0,.48-1.2,3.59-2.39,6.7-.26.51-.51.94-.73,1.25,0-.01,0-.05,0-.05v-.48c.24-.24,3.83-11.25,5.51-16.52,2.16-7.42,4.79-15.56,6.22-19.63.72-2.16,1.92-5.99,2.63-8.38,2.39-6.94,2.87-8.38,3.11-8.86,0-.24.48-1.92,1.2-3.59.72-1.68,1.68-4.31,2.15-5.75.48-1.44,1.2-3.59,1.68-4.79.48-1.2,1.44-3.83,2.16-5.99,1.68-4.55,3.59-9.82,5.51-15.08,1.2-3.59,1.92-5.51,2.63-7.18.24-.48.48-.96.48-.96,0-.24.96-2.39,2.4-5.27,1.2-2.39,1.68-4.31,1.2-4.07-.48.24-3.83,7.18-5.27,11.01-.72,1.92-2.16,5.75-3.11,8.62-1.91,5.51-5.99,16.28-8.38,22.51-2.15,5.27-5.51,14.37-7.42,19.87-.58,1.45-1.25,3.16-1.79,4.55.7-2.01,1.39-3.97,2.03-5.74,2.87-8.14,5.03-13.89,7.18-19.39,2.39-6.22,6.23-16.52,7.9-21.79,2.63-7.66,4.79-12.93,6.94-16.76.96-1.92,1.2-2.63.96-2.63s-2.16,3.59-2.16,3.83c0,0,0,.24-.24.24-.24.24.48-1.44,1.68-3.35.48-.96.96-1.91.96-1.91-.48.48-2.16,3.35-3.11,5.51-.12.24-.22.44-.33.65.05-.03.09-.02.09.07,0,.24-.24.72-.48,1.2-.24.48-.48.72-.48.48,0-.06.05-.18.08-.27-.05.06-.08.09-.08.03.24-1.2,2.87-7.18,4.31-9.82,1.2-2.39,1.44-2.87,1.2-2.87s-.48.24-.72.48q-.24.48-.24,0c0-.72-1.92,1.68-3.35,4.31-1.68,3.35-2.87,6.22-5.27,13.41-1.2,3.35-2.63,7.18-3.11,8.38-.48,1.2-1.44,3.83-2.16,5.51-.72,1.68-1.91,4.79-2.87,6.7-1.68,3.83-6.7,16.76-6.7,17.24,0,.24-.72,2.63-1.68,5.27-1.92,4.79-4.31,11.73-8.62,25.14-2.39,7.18-5.03,14.6-5.27,14.37,0,0,.48-1.68,1.2-3.59.72-1.92,2.15-5.99,3.11-9.1,2.63-8.62,6.23-19.63,7.18-22.27.48-1.44,1.68-5.03,2.87-8.14,2.63-7.42,4.55-12.69,6.7-17.96.96-2.39,2.16-5.75,2.87-7.42.72-1.68,1.68-4.07,2.16-5.27.48-1.2,1.91-5.03,3.11-8.38,1.91-5.98,3.59-10.06,5.03-12.93.96-1.92.24-.72-.96,1.44-1.44,2.87-2.87,6.23-4.55,11.73-.96,2.87-2.39,6.94-3.35,9.1-.96,2.15-1.92,4.79-2.39,5.75-.48.96-1.68,3.59-2.63,5.75-.96,2.15-2.16,5.03-2.63,6.46-.48,1.44-1.44,3.83-1.92,5.27-.48,1.44-1.44,4.07-1.92,5.75-.48,1.68-1.68,4.79-2.39,6.94-1.44,3.59-3.59,9.82-8.38,24.18-2.87,8.38-4.55,13.17-7.18,19.15-2.63,5.99-3.59,7.66-3.83,7.42v.24c.24.48-.24,1.2-.72,1.2s-1.44-3.59-3.35-11.25c-.96-4.07-3.11-14.84-3.59-17.72-.24-.96-.48-1.92-.48-2.16s-.24-1.2-.48-2.16c-.24-.96-.48-1.91-.48-2.39,0-.72-1.2-9.34-1.44-10.77v-1.68c-.24-1.68-.48-3.11-.48-3.59-.24-1.44-.48-3.59-.48-4.31s-.24-.96-.24-.24,1.92,18.44,2.39,21.79c.48,4.31,1.2,8.62,1.68,11.49.24,1.44.48,2.63.48,2.63-.24.24-1.68-7.18-2.39-12.21-.72-4.79-3.83-32.32-4.31-38.55-.48-4.55-.72-7.66-.96-19.39,0-5.03-.24-9.34-.24-9.58q-.24-.48-.48.48c0,.24-.24,0-.24-.48s-.24-.96-.48-.96-.48-.24-.48-.48c0-.72-.48-.72-.72,0,0,.48,0,.24-.24-.48-.24-.72-.48-.96-1.2-1.44-.48-.24-.96-.48-.96-.48,0,0-.24-.48-.48-.96-.48-.96-.72-1.2-.96-.96-.24.24-.48.48-.48.72s0,.48-.24.48-.24-.48-.24-.96c0-.72-.24-.96-.72-1.44-.72-.72-.96-.72-1.44-.24q-.24.24-.24,0c0-1.68-2.87-2.16-3.59-.48-.24.48-.48.72-.96.72q-.72,0-.72-1.2c0-1.44-.24-2.87-.72-3.35-.24-.24-.48-.24-1.2-.24h-1.2c-.48,0-1.2,1.91-2.15,5.27-.07.22-.16.48-.23.72.1,0,.15,0,.19.03-.09.22-.17.44-.25.68-.07,0-.13-.01-.15-.04-.26.82-.56,1.77-.89,2.81l.15.09s0,.02,0,.03c-.14.7-.27,1.28-.36,1.68h.12c0-.2.16-.88.35-1.64l.37.21c-.72,1.91-1.68,5.03-2.15,6.94-.48,1.91-1.68,5.98-2.63,8.86-.96,2.87-2.16,7.18-2.87,9.58-.72,2.39-1.44,4.55-1.68,4.79,0,.24-.24.48-.24.48v1.44s-.24.24-.48.48c-.24.24-.24.48-.24.48,0,0,0,.24-.24.48-.24.24-.24.72-.24.96s0,.24-.24,0c-.11-.11-.16-.15-.19-.14-.01.05-.03.1-.04.15,0,.06,0,.13,0,.24,0,.41,0,.45-.16.32-.2.68-.39,1.36-.59,2.04,0,0,0,0,0,0-1.63,5.64-3.18,11.13-4.28,15.11-1.91,6.7-2.63,9.1-4.55,14.36-1.2,3.59-1.68,4.79-1.68,4.31,0,0,.48-1.44,1.2-3.11,1.2-3.35,3.11-9.34,4.31-14.13.75-3.01,2.36-8.78,4.21-15.2-.04.05-.06.12-.14.12q-.24,0-.24.48v.48s-.24.48-.48.96c-.6,1.61-.48.87.23-1.79-1.41,4.76-2.79,9.46-4.06,14-2.39,8.38-2.63,9.34-4.55,14.85-2.39,6.46-9.1,23.22-10.3,25.62l-.24.48-.48-.96c-.96-1.91-4.31-10.53-5.75-14.36-2.63-7.66-4.07-11.25-6.94-17.96-.96-2.39-1.44-3.35-3.11-7.42-2.87-7.66-7.66-19.15-8.86-21.79-.48-1.2-1.92-4.31-3.11-6.7-1.2-2.39-2.87-5.98-3.83-7.9-.96-1.91-1.92-3.83-2.16-4.31-.24-.48-.72-1.44-1.2-2.15-.96-1.44-3.11-4.07-3.83-4.55-.24-.24-.72-.72-.96-1.2-.48-.48-.72-.72-.72-.48s-.24,0-.48-.48c-.48-.96-1.68-2.16-1.68-1.68,0,.24-.24,0-.48-.48-.48-.72-1.44-1.2-2.39-1.2-.48,0-.96,1.68-.96,2.87.24,1.44,0,1.2-.24-.48-.24-1.2-.72-1.68-.96-.96,0,.24-.24-.48-.48-1.44-.24-.96-.48-1.68-.72-1.92-.24-.24-.24,0,0,2.63v3.59c0,.48,0,.24-.24-.48-.24-.72-.48-2.15-.48-3.11s-.24-1.68-.48-1.68-.24,1.44-.24,4.31v4.31l-.48-1.92c-.24-.96-.48-2.16-.48-2.39-.24-.96-.24,2.63,0,3.59.24.48.48,2.63.72,4.55.24,1.92.72,4.07.96,4.55.24,1.2,1.2,6.94.96,7.18,0,0-.24-.24-.48-.48-.48-.48-.48-.24,0,1.92.24.96.96,4.31,1.68,7.42,1.2,5.75,1.68,7.18,4.31,15.56.96,2.87,2.15,7.66,2.87,10.53,1.91,7.18,2.63,9.34,5.75,18.91,3.35,10.06,4.07,12.21,5.75,18.2,3.59,13.41,4.55,16.28,6.7,19.63.48.72,1.44,2.63,2.15,4.07.72,1.44,1.68,3.59,2.16,4.55,1.2,2.16,3.35,5.51,4.31,6.22.24.24.48.24.24,0-.48-.48-.24-.72.24-.24.24.24.48.48.48.72s0,.48.24.72c.24.24.72.96,1.2,1.68,1.91,3.35,4.79,5.98,7.42,7.18.96.48,1.91.96,3.35,1.68.86.43,4.03,1.24,5.71,1.4-2.21,1.69-4.47,3.63-6.91,5.97-9.1,9.1-14.36,16.28-20.11,27.53-2.87,5.75-4.07,9.1-5.03,13.89-2.16,10.3-1.44,28.01,1.44,39.74,1.44,5.75,2.87,9.34,5.75,15.08l-.24-.48c3.11,6.47,4.07,8.38,5.27,10.3.72.96,1.68,2.87,2.39,4.07,3.35,5.99,5.99,9.58,10.77,14.37,5.75,5.99,13.65,11.25,20.83,14.36,5.51,2.4,8.14,3.35,10.54,4.07,1.44.48,3.11.96,3.83,1.2.72.24,1.44.48,1.68.48s.96.24,1.68.48c.72.24,1.2.48,1.2.48,0,0,.48.24.96.48.48.24.96.48.96.48,0,0,.24,0,.48.24.24.24.72.48.96.48h2.87c.72.24,1.44.24,2.87.48h1.2c0,.24,9.34,0,10.3-.24h2.63q1.43-.24,2.87-.48h1.92c2.15-.48,8.62-3.11,8.86-3.59,0-.24.24-.24.24-.24.24,0,1.68-.72,1.68-.96h.48s.24-.24.48-.24.48-.24.48-.48,0-.24.24-.24.24,0,.24-.24.24-.24.48-.24.48,0,.48-.24v-.24h.24s.96-.72,1.92-1.44c1.91-1.44,2.4-1.91,3.35-2.63.24-.24,1.2-.96,2.16-1.68,1.91-1.68,5.51-5.27,6.22-6.22.24-.48,1.68-2.39,3.11-4.31,3.11-3.59,4.31-5.51,7.42-10.53,2.87-5.03,7.66-14.6,9.34-19.15.96-2.63,2.63-8.62,3.11-11.01.96-4.79,1.44-12.69,1.2-18.44-.24-6.7-.96-13.17-1.44-12.69-.24.24-.24,1.44,0,3.35.48,4.79.72,14.6.24,19.15-.48,3.83-1.2,8.38-1.44,8.14,0,0,.24-1.44.48-3.11.24-1.68.48-5.75.48-8.86.24-9.1-.24-17-1.68-24.9-.24-1.68-.48-3.11-.48-3.11,0-.24.96,2.87,1.44,5.03.24,1.44.48,1.91.48,1.68.24-.48-.24-3.11-.48-3.11l-.48-1.44c-.24-.72-.48-1.44-.48-1.44,0,0,0-.24-.24-.48-.24-.24-.48-.72-.48-1.2-.48-2.63-3.35-9.58-5.75-14.6-3.83-7.42-11.97-19.39-16.76-24.18-1.2-1.2-3.11-3.35-4.31-4.79-2.05-2.35-3.94-4.11-5.91-5.54,1.03-1.34,2.2-3.3,3.76-6.14,3.35-5.98,7.18-14.36,6.94-14.84q0-.24.24-.24c.24.24.48-.48.24-.96q0-.24.24-.24c.24.24.48-.48.24-.96q0-.24.24-.24c.24.24.48-.48.24-.96q0-.24.24-.24c.24.24.48-.24.24-.72q0-.24.24-.24c.14.14.35-.05.46-.28-.19-.27.03-.9.26-.67.24.24.24.48,1.68-3.11.48-1.44.96-2.87.96-3.11v-.24c.24.24.96-1.91.72-2.16q0-.24.24-.24c.48.24,4.07-11.01,3.83-11.73v-.48c.24.24,1.92-6.22,1.68-6.46q0-.24.24-.24c.24,0,.72-1.68,1.44-4.31l2.15-2.63c.72-2.39,1.68-5.75,2.16-7.42,1.37-4.1,2.24-7.36,2.39-8.44v.3s0-.48.24-.96c.24-.48.48-.72.48-.48s.24-.48.48-1.44c.24-.96.48-1.68.48-1.91s0-.24.24-.24c.11.11.46-.62.81-1.5.05-.17.13-.42.22-.72-.08.28-.14.49-.19.67.42-1.07.85-2.37.85-2.76,0-.02-.01,0-.01,0,.65-2.13,1.51-4.87,2.17-6.7.48-1.44,1.44-4.31,1.91-6.22,1.92-6.22,4.79-14.6,6.7-19.39,2.15-5.27,2.63-6.7,4.79-14.37,1.68-5.75,2.15-7.9,2.15-9.58,0-1.2-.48-1.91-.48-.72ZM261.41,50.24h.24q.24-.24.24,0c0,.24,0,.48-.24.72q-.24.24-.24,0v-.72ZM251.11,76.33v.48s-.48,1.2-.96,2.63c-.96,2.39-1.2,2.87-1.2,2.39,0-.24,2.15-5.51,2.15-5.51ZM248.95,82.08s0,.24-.24.48c0-.24.24-.48.24-.48ZM236.76,122.11c-.97,3.11-1.69,5.43-1.69,5.22,0-.09.67-2.17,1.69-5.22ZM101.71,65.08c-.24-.48-.24-.96-.24-.96,0,0,.24.48.48.96.24.48.24.96.24.96,0,0-.24-.48-.48-.96ZM102.67,61.25c-.24.24-.72-1.2-.72-1.68,0-.24.24,0,.48.48.24.48.24.96.24.96v.24ZM216.39,163.12s-.04,0,0-.11v.11ZM219.03,161.81c0-.24.72-1.68.72-1.68,0-.24.96-2.15,1.2-2.15,0,0,0,.24-.24.72-.48.96-.96,1.68-.96,1.44,0,0,0,.48-.24.96v-.24c-.24.72-.48,1.2-.48.96ZM216.15,164.44l.17-.17c-.15.28-.22.36-.17.17ZM226.45,157.98s.14-.33.32-.75c-.18.46-.32.75-.32.75ZM219.74,156.06v-.24c.09-.09.17-.16.24-.23.08-.2.16-.38.24-.59v-.62h.24s0,0,.01-.01c2-5.06,4.21-11.17,5.97-16.75,1.44-4.31,2.63-7.9,2.63-7.66,0,.48-3.83,12.45-5.27,16.52-.89,2.22-2.18,5.64-3.12,8.04,0,.19-.03.39-.23.58-1.14,2.77-2.83,6.53-3.72,8.35.09-.33.23-.74.37-1.17.72-1.52,1.61-3.58,2.56-5.91-.21.21-.4.38-.4.17,0,0,.24-.24.48-.48ZM218.96,157.89c-.18.39-.42.92-.66,1.52-.46,1.04-.98,2.08-1.36,2.79.61-1.35,1.55-3.32,2.02-4.31ZM216.87,159.65v.24q1.44-2.87,0,.24c-.48,1.2-.96,2.16-.96,2.16-.24,0-.24-.24.96-2.63ZM199.39,61.73l.24,9.34c.24,11.25.24,12.93,2.16,30.65.48,4.55.72,8.38.72,8.62v.24c0-.24-.48-4.55-.96-9.58-1.92-17.24-2.15-20.83-2.15-31.84v-7.42ZM190.06,45.93q.24-.24.24.24c0,.24,0,.48-.24.48-.24.24-.24-.24,0-.72ZM186.94,127.57c.48-1.92.96-3.59.96-3.59,0,0,.24,1.68.72,3.59.72,3.59,2.87,13.41,3.11,13.65v.96c0,.48.24,1.2.24,1.68v.72s0,.24.24.48c.24.48.48,1.68.24,1.44,0,0-.72-2.15-1.44-4.79-1.2-4.31-1.68-5.99-1.68-5.51,0,0,0,.48.24.96.24.48.96,2.87,1.68,5.51,2.39,9.58,4.55,16.76,5.99,19.39.48.96,1.2,2.87,1.68,4.31,2.39,7.42,5.03,12.93,7.42,15.8.22.33.48.75.75,1.18-1.4.39-2.08.32-3.87-.27-4.31-1.44-9.58-1.68-14.36-.96-.72,0-1.68.24-2.15.24-7.55,1.05-12.53,2.11-17.1,3.83.31-.67.6-1.32.82-1.87,1.91-4.79,6.7-19.63,9.34-29.21,1.2-4.55,4.31-16.76,4.55-18.2q0-.48.24,0c0,.24.24-.24.48-1.44.24-.96.24-1.91.24-2.16v-.24c.24.24.48-1.2.24-1.68q0-.24.24-.24s.06-.08.09-.11c-.17-.78-.37-1.75-.57-2.76-.72-3.11-.96-4.55-.72-5.03.24-.48.48.48,1.2,4.55.16.96.29,1.86.4,2.64.23-.62.51-1.6.8-2.88ZM196.52,189.05c-1.92,0-4.55.24-5.75.48-2.15.48-2.39.48-2.15.24h-.24c.24-.24,4.31-.96,5.99-1.2h3.59l2.15.24-3.59.24ZM199.15,190.49c-.95.19-2.01.22-2.43.11.65-.25,2.74-.55,3.15-.35.24.24,0,.24-.72.24ZM172.82,196.47c-.96.48-1.44.48-1.44.24,0,0,.72-.48,1.68-.96l.24.24c4.79-2.4,14.85-5.51,19.39-5.99l1.43-.24-1.91.48c-.96.24-3.11.72-4.55,1.2-2.87.72-7.18,2.15-10.05,3.11-1.68.48-2.87.96-4.79,1.91ZM175.93,196.24c-.24.24-.48.24-.72.24v-.48h.72q.24,0,0,.24ZM164.67,201.02c.24-.24.72-.48.96-.72l.48-.24-.48.48c-.24.24-.72.48-.96.72l-.48.24.48-.48ZM185.99,42.81c.24-.24,0,.24-1.2,3.35-.07.17-.14.37-.22.56.63-1.96,1.26-3.76,1.41-3.91ZM184.51,46.91s.04.09.04.21c0,.24,0,.48-.24.48,0,0,0,0-.01,0,.07-.23.14-.46.22-.69ZM184.1,48.25s0-.01,0-.02c.03-.09.09-.15.2-.15h.24s0,.24-.24.48q-.24.24-.24,0c0-.11,0-.22.03-.31ZM153.66,152.47s.48-1.68,1.2-3.59c.72-1.92,1.68-4.55,2.15-5.99.48-1.44,1.68-4.79,2.63-7.42.38-1.04.87-2.43,1.41-3.92,2.5-7.59,4.16-13.2,6.49-22.18,2.39-8.86,3.11-11.25,5.51-19.87.72-2.16,1.44-4.55,1.68-5.27,1.2-4.07,7.42-25.14,9.1-30.89.48-1.44.96-2.63.96-2.63.48-.24-.24,2.63-3.59,13.89l2.39-1.92c-5.27,17.72-5.75,19.63-5.75,20.11v.96c0,.24-.24,1.2-.48,2.15-.24.96-.48,1.92-.48,2.16v1.68l-.48,1.44c-.24.72-.48,1.2-.48,1.2,0,0,0,.24-.24.48-.24.24-.24.48-.24.48,0,0,0,.24-.24.48-.24.24-.24.48-.24.48,0,0-.24.72-.48,1.44-.24.72-.48,1.2-.48,1.2,0,0-.24.72-.48,1.68-.24.96-.48,1.68-.48,1.68,0,0,0,.24-.24.48-.24.24-.24.48-.24.48,0,0,0,.24-.24.48-.24.24-.24.48-.24.48,0,0,0,.48-.24.96-.24.48-.24.96-.24.96h-.24c-.24,0-.24.24-.24.48s0,.48-.24.48v.48c0,.24,0,.48-.24.48v1.68c0,.72-.24,1.68-.48,1.68v.48c0,.24,0,.48-.24.72-.24.24-.24.48-.24.48.24,0-.24,1.44-.48,1.68q.24,0,0,.24c-.24.24-.48.48-.48.48,0,0,0,.48-.24,1.2v1.2s0,.24-.24.48v1.68c0,.24,0,.48-.24.48v.48c0,.24,0,.48-.24.48h-.24s0,.48-.24.96c-.24.48-.24.96-.24.96,0,0,0,.24-.24.48-.24.24-.24.48-.24.48,0,.48-.24,1.44-.48,1.44v.96c-.24,0-.24.24-.24.24h-.24c-.24,0-.24.24-.24.48v.48c-.24,0-.24.24-.24.48s0,.48-.24.48h-.24s0,.24-.24.48c-.24.24-.24.48-.24.48,0,0-.24.96-.72,2.16-.48,1.2-.72,2.16-.72,2.16,0,0,0,.24-.24.48-.24.24-.24.48-.24.48h-.24c-.24,0-.48.24-.48.48v1.68h-.48v.72c0,.24-.24.72-.48.96s-.24.48-.24.48c0,0-.24.72-.48,1.44l-.48,1.44h-.24c-.24,0-.24.24-.24.48s0,.48-.24.48h-.24s0,.24-.24.24c0,0,0,0,0,0-1.32,3.69-2.48,6.84-3.11,8.38-.96,2.16-1.44,3.11-1.44,2.63ZM158.69,144.57c0,.24-.24.72-.24.96q-.24.24-.24-.24c0-.24.24-.72.24-.96q.24-.24.24.24ZM148.87,218.26c-.24.24-.48.48-.72.48s-.24,0,0-.24c.24-.24.48-.48.72-.48s.24,0,0,.24ZM155.1,210.6c-.48.48-1.91,2.15-3.35,3.83-2.4,3.11-3.59,4.31-2.16,2.15v.24c1.68-2.39,5.99-7.42,6.23-7.18,0,0-.24.48-.72.96ZM160.43,204.82c1.2-1.14,2.97-2.44,4.96-3.55.96-.72,2.15-1.44,2.63-1.68.96-.72,6.23-3.35,6.47-3.11,0,0-.48.24-1.2.48-1.68.72-7.66,4.31-9.1,5.51-.72.48-1.92,1.44-2.63,2.16-1.55,1.11-2.01,1.14-1.13.2ZM209.92,319.54v-.24q.24,0,0,.24ZM223.81,310.92c-.72.48-1.44.96-1.44.96-.72.96-11.01,7.18-11.25,6.94,0,0,.72-.48,1.68-.96,3.35-1.92,5.03-3.11,5.03-3.11,0,0-.72.24-1.44.72-2.15,1.44-5.99,3.35-6.22,3.11q-.24,0-.24.24t-.24.24c-.24,0-.72.24-1.2.48-.48.24-1.2.48-1.44.48s-.72.24-1.2.48c-.72.48-2.15.96-4.55,1.68-.96.24-1.91.48-2.15.48-.48,0-.48-.48,0-.48,1.91-.24,13.17-4.79,16.52-6.7.96-.72,1.67-.96,1.67-.72s2.15-1.2,2.15-1.68v-.02c.13.03.6-.26,1.44-.93,2.87-2.16,8.62-7.66,11.97-11.49.96-1.2,1.91-2.39,2.15-2.63,1.2-1.44-1.2,2.15-2.87,4.31l1.2-.72c-2.15,2.63-7.66,7.9-9.58,9.34ZM233.87,321.93q-.24,0-.24-.24c0-.24,0-.48.24-.48s.24,0,.24.24,0,.48-.24.48ZM234.35,321.45s.24-.24.48-.48c.09-.09.16-.16.24-.24h.24c-.48.48-.96.72-.96.72ZM235.93,319.87c.06-.06.09-.09.09-.09,0,0-.03.03-.09.09ZM238.9,222.09c2.39,3.59,3.59,5.98,4.31,8.86,1.2,4.55,1.43,6.47,1.91,12.69.24,4.07.24,5.27,0,9.82-.72,9.58-2.39,17-5.03,22.74-.48.96-1.2,2.63-1.68,3.83-1.2,2.63-2.63,5.03-5.51,8.86s-3.59,4.55-6.46,7.18c-2.87,2.63-4.79,4.31-6.71,5.51-2.15,1.44-7.66,4.31-9.82,5.27-2.39.96-10.06,3.83-10.53,3.83h-.48s-.48,0-.96.24c-1.2.48-5.51,1.2-8.14,1.44-5.03.48-9.34.48-13.89-.24h-1.44c-2.4-.24-5.75-.96-7.42-1.44-.72-.24-3.11-9.34-3.59-14.36v-1.68c-.72-4.55-.72-16.76,0-22.98.48-3.83.72-5.27,1.44-8.62,1.2-5.75,3.35-12.21,6.47-18.91,2.39-5.51,5.27-10.29,9.82-16.04,2.39-2.87,8.86-9.58,10.53-10.77.48-.48,1.2-.96,1.44-1.2.24-.24.96-.72,1.44-1.2.48-.48.96-.96.96-.96,0,0,.48-.48.96-.96.48-.48.96-.72.96-.72-.24-.24,6.46-3.35,9.34-4.31h-.48c4.31-1.68,7.18-2.39,10.3-2.39.48,0,.96-.24,1.2-.48.24-.24.96-.24,3.11-.24h2.87l1.2.96c4.79,4.31,9.58,9.82,13.89,16.28ZM241.53,166.12q-.24.24-.24,0v-.72q.24-.24.24,0c0,.24,0,.48-.24.72h.24ZM245.36,154.62c0-.24,0-.48.24-.72.15-.15.2-.17.22-.13-.06.47-.46,1.07-.46.85Z"/>
        <path class="cls-1" d="M157.68,141.7h.3s0-.23.24-.24c3.22-9,7.43-21.28,7.43-21.79,0-.24-.96,2.15-2.16,5.27-.72,1.88-1.62,4.36-2.42,6.62-.84,2.53-1.76,5.29-2.84,8.47-.18.59-.36,1.15-.54,1.68Z"/>
        <path class="cls-1" d="M263.32,53.35v.72q0,.24.24,0c.24-.24.24-.48.24-.72s0-.24-.24,0h-.24Z"/>
        <path class="cls-1" d="M182.87,52.63s.05-.2.11-.48h-.11v.48Z"/>
        <path class="cls-1" d="M171.13,88.84c-.03.1-.06.2-.09.3.04-.06.08-.16.09-.3Z"/>
        <path class="cls-1" d="M171.46,87.69s.08.06.16.14c.12,0,.18,0,.21-.03,0,0,0,0,0,0,.03-.03.03-.09.03-.2-.24-.48,0-1.68.24-1.44v-.48q0-.24.24,0s.06.05.08.08c.05-.18.11-.37.16-.55,0-.1.02-.14.04-.15,2.04-7.02,4.1-13.96,5.46-18.29,2.32-7.3,3.94-12.61,5.13-16.39l-.41-.24c-.88,2.93-2.24,7.38-3.76,12.08-1.66,5.25-4.83,15.92-7.59,25.48Z"/>
        <path class="cls-1" d="M171.38,87.95c.03-.09.05-.17.08-.26-.06-.03-.07.05-.08.26Z"/>
        <path class="cls-1" d="M171.38,88.06c0-.05,0-.08,0-.12-.03.09-.05.19-.08.28.02.02.04.04.08.08q.24.24,0-.24Z"/>
        <path class="cls-1" d="M182.66,50.05l-.48-.28c-.8,2.29-2.24,7.12-5.77,18.66-2.91,9.99-5.02,17.3-6,20.96,2.84-9.57,5.91-19.5,9.11-29.58,1.14-3.79,2.41-7.69,3.14-9.77Z"/>
        <path class="cls-1" d="M186.47,133.08s-.11-1.07-.32-2.62c-.12.31-.22.51-.31.6.23,1.06.39,1.78.39,1.78l.24.24Z"/>
        <path class="cls-1" d="M219.74,156.3c.24-.24.48-.48.48-.72,0-.15-.1-.1-.24.01-.11.26-.21.52-.32.78.02-.02.05-.05.07-.07Z"/>
        <path class="cls-1" d="M189.58,149.84v-.72c0-.24,0-.48-.24-.48v1.2h-.24c.24.48.48.48.48,0Z"/>
        <path class="cls-1" d="M220.46,155.1c.07-.17.16-.4.23-.58,0-.04.01-.09.01-.14,0-.23,0-.23-.23-.01-.09.22-.17.42-.25.64v.09q0,.24.24,0Z"/>
      </g>
    </g>
  </g>
</svg>