<?xml version="1.0" encoding="UTF-8"?>
<svg id="Calque_2" data-name="Calque 2" xmlns="http://www.w3.org/2000/svg" xmlns:xlink="http://www.w3.org/1999/xlink" viewBox="0 0 28.87 24.59">
  <defs>
    <style>
      .cls-1 {
        fill: none;
      }

      .cls-2 {
        fill: #f2d4a6;
      }

      .cls-3 {
        clip-path: url(#clippath);
      }
    </style>
    <clipPath id="clippath">
      <rect class="cls-1" width="28.87" height="24.59"/>
    </clipPath>
  </defs>
  <g id="Calque_1-2" data-name="Calque 1">
    <g class="cls-3">
      <path class="cls-2" d="M10.78,13.29s.26-.3.65-.75c-.32,1.16-.17,3.46-.17,3.46l-1.48,1.23,1.01-3.94ZM12.86,21.56c-.98-.3-2.31-1.38-3.61-2.62l2.34-2.67s3.8-1.51,4.32-2.03c.9-.89,2.7-5.29,2.7-5.29,0,0-4.26,1.14-6.21,2.44,1.04-1.25,2.22-2.74,2.39-3.26C15.33,6.48,14.79,0,14.79,0,14.79,0,8.61,5.57,8.21,8.16c-.2,1.33,1.99,5.02,1.99,5.02l-2.01,4.68c-1.84-1.91-4.3-3.19-4.3-3.19,0,0-3.23-3.9-3.68-3.26-1.82,2.63,8.4,10.06,9.81,11.48,1.41,1.42,17.85,1.69,17.85,1.69l.99-2.06s-13.32-.15-16-.97"/>
    </g>
  </g>
</svg>