<?xml version="1.0" encoding="UTF-8"?>
<svg id="Calque_2" data-name="Calque 2" xmlns="http://www.w3.org/2000/svg" viewBox="0 0 197.05 29.39">
  <defs>
    <style>
      .cls-1 {
        fill: #94473d;
      }
    </style>
  </defs>
  <g id="logo_avec_fond" data-name="logo avec fond">
    <path class="cls-1" d="M24.85,16.67c-.11.42-.19.68-.23.68s-.04,0-.04.04c.04.04-.23,1.06-.26,1.02v.08c.04.11-.53,1.89-.61,1.85t-.04.04s-.08.38-.11.34v.04s-.08.26-.15.49c-.23.57-.23.53-.26.49-.04-.04-.08.08-.04.11v-.08s-.04.15-.08.11t-.04.04c.04.08,0,.15-.04.11t-.04.04c.04.08,0,.19-.04.15t-.04.04c.04.08,0,.19-.04.15t-.04.04c.04.08,0,.19-.04.15t-.04.04c.04.08-.57,1.4-1.1,2.35-.64,1.17-.87,1.4-1.36,1.4-.23,0-.76-.11-.91-.19-.04-.04-.19-.08-.34-.11-.3-.08-.38-.11-.49-.23-.04-.04-.15-.08-.23-.11-.34-.08-.83-.53-1.1-.98-.08-.11-.19-.3-.26-.42-.38-.45-.79-1.32-1.17-2.5-.08-.23-.19-.53-.26-.68-.23-.42-.57-1.55-.95-3.06-.11-.42-.23-.79-.26-.87-.04-.08-.04-.15-.04-.15,0-.08.08.19.26.87.11.42.23.76.23.76.04.04,0-.15-.04-.23-.04-.04-.04-.08-.04-.08v-.11c0-.08-.04-.19-.04-.26v-.15s-.38-1.59-.49-2.16c-.08-.3-.11-.57-.11-.57,0,0-.08.26-.15.57-.08.34-.15.57-.19.57s-.04,0-.04.04c.04.08,0,.3-.04.27v.04s0,.19-.04.34c-.04.19-.08.26-.08.23q-.04-.08-.04,0c-.04.23-.53,2.16-.72,2.88-.42,1.51-1.17,3.86-1.48,4.62-.23.57-.83,1.67-.95,1.7-.04,0,0-.08.08-.19.15-.19.19-.3.11-.23-.04.04-.15.08-.23.08-.19.04-.3.15-.23.23.04.04.08.08.11.08s.08,0,.08.04c-.04.04-.15.04-.23,0h-.19c-.15,0-.38-.08-.45-.15-.04-.04-.15-.08-.26-.08-.23,0-.83-.15-.98-.23-.23-.11-.38-.19-.53-.26-.42-.19-.87-.61-1.17-1.14-.08-.11-.15-.23-.19-.26-.04-.04-.04-.08-.04-.11s-.04-.08-.08-.11c-.08-.08-.11-.04-.04.04.04.04,0,.04-.04,0-.15-.11-.49-.64-.68-.98-.08-.15-.23-.49-.34-.72-.11-.23-.26-.53-.34-.64-.34-.53-.49-.98-1.06-3.1-.26-.95-.38-1.29-.91-2.88-.49-1.51-.61-1.85-.91-2.99-.11-.45-.3-1.21-.45-1.67-.42-1.32-.49-1.55-.68-2.46-.11-.49-.23-1.02-.26-1.17-.08-.34-.08-.38,0-.3.04.04.08.08.08.08.04-.04-.11-.95-.15-1.14-.04-.08-.11-.42-.15-.72-.04-.3-.08-.64-.11-.72-.04-.15-.04-.72,0-.57,0,.04.04.23.08.38l.08.3v-.68c0-.45,0-.68.04-.68s.08.11.08.26.04.38.08.49.04.15.04.08v-.57c-.04-.42-.04-.45,0-.42.04.04.08.15.11.3s.08.26.08.23c.04-.11.11-.04.15.15.04.26.08.3.04.08,0-.19.08-.45.15-.45.15,0,.3.08.38.19.04.08.08.11.08.08,0-.08.19.11.26.26.04.08.08.11.08.08s.04,0,.11.08c.04.08.11.15.15.19.11.08.45.49.61.72.08.11.15.26.19.34.04.08.19.38.34.68.15.3.42.87.61,1.25.19.38.42.87.49,1.06.19.42.95,2.23,1.4,3.44.26.64.34.79.49,1.17.45,1.06.68,1.63,1.1,2.84.23.61.76,1.97.91,2.27l.08.15.04-.08c.19-.38,1.25-3.03,1.63-4.05.3-.87.34-1.02.72-2.35.61-2.16,1.32-4.5,2.08-6.89.23-.76.49-1.55.57-1.74.08-.19.11-.34.11-.34,0,0-.34,1.17-.76,2.46-.45,1.44-1.63,5.45-1.93,6.66-.19.76-.49,1.7-.68,2.23-.11.26-.19.49-.19.49,0,.08.08-.11.26-.68.3-.83.42-1.21.72-2.27.42-1.51,1.25-4.39,1.66-5.71.53-1.66.83-2.69,1.02-3.25.15-.53.26-.83.34-.83h.19c.11,0,.15,0,.19.04.08.08.11.3.11.53q0,.19.11.19c.08,0,.11-.04.15-.11.11-.26.57-.19.57.08t.04,0c.08-.08.11-.08.23.04.08.08.11.11.11.23,0,.08,0,.15.04.15s.04-.04.04-.08.04-.08.08-.11.08,0,.15.15l.08.15s.08.04.15.08c.11.08.15.11.19.23s.04.15.04.08c.04-.11.11-.11.11,0,0,.04.04.08.08.08s.08.08.08.15.04.11.04.08q.04-.15.08-.08s.04.72.04,1.51c.04,1.85.08,2.35.15,3.06.08.98.57,5.34.68,6.09.11.79.34,1.97.38,1.93,0,0-.04-.19-.08-.42-.08-.45-.19-1.13-.26-1.82-.08-.53-.38-3.33-.38-3.44s.04-.08.04.04.04.45.08.68c0,.08.04.3.08.57v.26c.04.23.23,1.59.23,1.7,0,.08.04.23.08.38.04.15.08.3.08.34s.04.19.08.34c.08.45.42,2.16.57,2.8.3,1.21.45,1.78.53,1.78s.15-.11.11-.19v-.04s.19-.23.61-1.17c.42-.95.68-1.7,1.13-3.03.76-2.27,1.1-3.25,1.32-3.82.11-.34.3-.83.38-1.1.08-.26.23-.68.3-.91.08-.23.23-.61.3-.83.08-.23.26-.68.42-1.02.15-.34.34-.76.42-.91.08-.15.23-.57.38-.91.15-.34.38-.98.53-1.44.26-.87.49-1.4.72-1.85.19-.34.3-.53.15-.23-.23.45-.49,1.1-.79,2.04-.19.53-.42,1.13-.49,1.32-.08.19-.23.57-.34.83s-.3.79-.45,1.17c-.34.83-.64,1.67-1.06,2.84-.19.49-.38,1.06-.45,1.29-.15.42-.72,2.16-1.14,3.52-.15.49-.38,1.14-.49,1.44-.11.3-.19.57-.19.57.04.04.45-1.13.83-2.27.68-2.12,1.06-3.22,1.36-3.97.15-.42.26-.79.26-.83,0-.08.79-2.12,1.06-2.72.15-.3.34-.79.45-1.06.11-.26.26-.68.34-.87.08-.19.3-.79.49-1.32.38-1.13.57-1.59.83-2.12.23-.42.53-.79.53-.68q0,.08.04,0s.08-.08.11-.08,0,.08-.19.45c-.23.42-.64,1.36-.68,1.55,0,.04.08-.11.19-.34.15-.34.42-.79.49-.87,0,0-.08.15-.15.3-.19.3-.3.57-.26.53.04,0,.04-.04.04-.04,0-.04.3-.61.34-.61s0,.11-.15.42c-.34.61-.68,1.44-1.1,2.65-.26.83-.87,2.46-1.25,3.44-.34.87-.68,1.78-1.13,3.06-.53,1.48-1.29,3.75-1.29,3.78s.15-.45.34-1.06c.19-.61.42-1.29.49-1.48.08-.19.26-.68.42-1.06.3-.87.83-2.31,1.17-3.14.38-.98,1.02-2.69,1.32-3.56.15-.45.38-1.06.49-1.36.23-.61.76-1.7.83-1.74.08-.04,0,.26-.19.64-.23.45-.38.79-.38.83,0,0-.04.08-.08.15-.11.26-.23.57-.42,1.13-.3.83-.61,1.67-.87,2.38-.11.34-.26.76-.34.95-.08.19-.19.53-.26.76-.08.23-.23.64-.34.91s-.19.53-.19.57c-.04.08-.11.3-.49,1.4-.11.38-.3.98-.42,1.32-.23.64-.64,1.93-.98,3.1-.26.83-.83,2.57-.87,2.61v.08s0,.04-.04.08c-.04.04-.04.08-.04.11v.08s-.04.04-.04.08,0,.08-.04.08h-.04s-.04.08-.08.15c-.04.08-.08.19-.08.23s-.04.08-.04.11c-.04.04-.23.49-.23.49,0,0,.04-.08.08-.19.23-.61.3-.79.3-.76v-.04s0-.08.04-.08.11-.23.08-.26h.04s.11-.11.19-.26c.19-.49.38-.98.38-1.06v-.11h.04s.04-.04.04-.08,0-.08.04-.08v-.08s0-.08.04-.08h.04s0-.04.04-.08c.04-.04.04-.08.04-.08,0,0,0-.04.04-.08.04-.04.04-.08.04-.08,0,0,0-.08.04-.15.04-.08.04-.15.04-.15h.04s.04-.04.04-.08v-.08s.04-.04.04-.08,0-.08.04-.08h.04s0-.04.04-.08.04-.08.04-.08c0,0,0-.04.04-.08.04-.04.04-.08.04-.08,0,0,0-.04.04-.08s.04-.08.04-.08c0,0,0-.08.04-.15.04-.08.04-.15.04-.15,0,0,0-.04.04-.08.04-.04.04-.08.04-.08,0,0,0-.04.04-.08.04-.04.04-.08.04-.08v-.08c.04-.19.57-1.74,1.06-3.14.15-.42.34-.98.45-1.29.26-.79.76-2.08,1.02-2.76.34-.83.87-2.27,1.25-3.33.34-.98.42-1.21.68-1.82.19-.42.49-.98.53-1.02s0,.08-.08.23c-.19.38-.53,1.13-.49,1.13,0,0,.11-.23.11-.26,0,0,.08-.15.15-.34.08-.19.19-.42.23-.53.15-.3.34-.57.45-.57.15,0,.3.08.3.15,0,.04-.04.19-.11.3q-.11.26,0,.26c.08,0,.11-.08.23-.38.04-.15.11-.11.08.04s0,.15.04.04c.04-.15.08-.11.08.08,0,.26.08.34.15.19.04-.08.08-.11.08-.11.04,0,.15.23.15.34q0,.08,0,.04c0-.08.08-.08.11,0,0,.04.04.04.04.04.08-.04.15.08.15.23q0,.23.04.19s.08-.08.11-.08c.08,0,.11.15.11.42q0,.08.04,0v-.15c0-.19.08-.08.08.11,0,.26-.08.61-.34,1.51-.34,1.21-.42,1.44-.76,2.27-.3.76-.76,2.08-1.06,3.06-.08.3-.23.76-.3.98-.19.53-.49,1.55-.49,1.55,0,0,.04-.11.08-.26.04-.15.08-.26.08-.23,0,.11-.23.72-.26.68t-.04.04s-.04.15-.08.3-.08.26-.08.23-.04,0-.08.08c-.04.08-.04.15-.04.15v-.11s-.11.61-.38,1.4c-.08.26-.23.79-.34,1.17l-.34.42ZM.41,5.85c-.04-.08-.08-.15-.08-.15,0,0,0,.08.04.15.04.08.08.15.08.15,0,0,0-.08-.04-.15ZM.52,5.21s0-.08-.04-.15c-.04-.08-.08-.11-.08-.08,0,.08.08.3.11.26v-.04ZM.63,3.96v-.11s0,0,0,.04,0,.08,0,.04v.04ZM10.47,14.48s-.15.34-.34.83c-.19.49-.45,1.25-.61,1.67s-.34.95-.42,1.17c-.08.23-.23.64-.34.95-.11.3-.19.57-.19.57,0,.08.08-.08.23-.42.34-.83,1.67-4.65,1.67-4.77ZM12.93,5.78c.53-1.78.64-2.23.57-2.19,0,0-.08.19-.15.42-.26.91-1.25,4.24-1.44,4.88-.04.11-.15.49-.26.83-.38,1.36-.49,1.74-.87,3.14-.49,1.89-.79,2.84-1.48,4.84-.15.49-.3.87-.3.87,0,.08.04,0,.11-.23l.08-.3v-.08h.08s0-.04.04-.04.04-.04.04-.04h.04s.04-.04.04-.08,0-.08.04-.08h.04l.08-.23c.04-.11.08-.23.08-.23,0,0,0-.04.04-.08s.08-.11.08-.15v-.11h.08v-.26s.04-.08.08-.08h.04s0-.04.04-.08c.04-.04.04-.08.04-.08,0,0,.04-.15.11-.34.08-.19.11-.34.11-.34,0,0,0-.04.04-.08.04-.04.04-.08.04-.08h.04s.04-.04.04-.08,0-.08.04-.08v-.08s0-.08.04-.08h.04s0-.04.04-.04v-.15s.08-.15.08-.23c0,0,0-.04.04-.08.04-.04.04-.08.04-.08,0,0,0-.08.04-.15.04-.08.04-.15.04-.15h.04s.04-.04.04-.08v-.08s.04-.04.04-.08v-.26s.04-.08.04-.08v-.19c.04-.11.04-.19.04-.19l.08-.08s.04-.04,0-.04-.04,0,0,0c.04-.04.11-.26.08-.26,0,0,0-.04.04-.08s.04-.08.04-.11v-.08s.08-.15.08-.26v-.26s.04-.04.04-.08v-.08s.04-.04.04-.08,0-.08.04-.08h.04s0-.08.04-.15c.04-.08.04-.15.04-.15,0,0,0-.04.04-.08.04-.04.04-.08.04-.08,0,0,0-.04.04-.08s.04-.08.04-.08c0,0,.04-.11.08-.26.04-.15.08-.26.08-.26,0,0,.04-.08.08-.19.04-.11.08-.23.08-.23,0,0,0-.04.04-.08.04-.04.04-.08.04-.08,0,0,0-.04.04-.08.04-.04.04-.08.04-.08,0,0,.04-.08.08-.19.04-.11.08-.23.08-.23v-.26s.04-.19.08-.34.08-.3.08-.34v-.15c0-.08.08-.38.91-3.18l-.38.3ZM9.34,18.38s-.04.11-.04.15q0,.08.04.04s.04-.11.04-.15q0-.08-.04-.04ZM10.51,14.33v.08-.08s0-.04,0,0ZM13.08,3.43c.15-.49.15-.57.15-.79v-.23s-.04.11-.08.26c-.11.26-.11.34-.04.23.04-.04.08-.08.11-.08s.04.04,0,.08c-.04.04-.08.11-.11.19l-.04.11.08-.11q.11-.11,0,.15c-.11.26-.3.91-.98,3.14-.79,2.72-1.21,4.2-.98,3.6.04-.08.08-.15.08-.15v-.08q0-.08.04-.08s.04-.04.04-.11,0-.08.04-.04.04.04,0-.04q0-.08.04-.04s.04,0,.04-.04c-.04-.08,0-.26.04-.23v-.08s0-.04.04,0,.04.04.04-.04,0-.08.04-.04.04.04.04,0,0-.11.04-.15.04-.08.04-.08c0,0,0-.04.04-.08.04-.04.08-.08.08-.08v-.23s.04-.04.04-.08c.04-.04.15-.38.26-.76.11-.38.3-1.06.45-1.51.15-.45.34-1.1.42-1.4.08-.3.23-.79.34-1.1l-.26-.15ZM11.19,11.87v.08-.08s0-.04,0,0ZM11.3,11.53s0,.04.04,0v-.11s0-.04-.04,0v.11ZM11.46,11s.04-.11.04-.19,0-.08-.04-.04c0,.04-.04.11-.04.19s0,.08.04.04ZM11.53,10.62s0,.04.04,0v-.11s0-.04-.04,0v.11ZM11.61,10.2c-.04.23-.04.26.04.08.04-.08.08-.15.11-.15s.04,0,0,0-.08.04-.11.15l-.04-.08ZM13.2,3.81v.08s.04-.15.08-.34c.04-.19.15-.49.23-.68.19-.49.23-.57.19-.53-.04.04-.26.72-.38,1.13-.04.15-.08.3-.08.34h-.04ZM13.35,2.26v.57c.04.08.08-.11.04-.34-.04-.26-.11-.42-.11-.23h.08ZM13.42,3.01s-.04.04-.04.04t.04.04s.04-.04.04-.08,0-.04-.04-.04v.04ZM13.42,3.24s.04-.08.04-.08h-.04s-.04.04-.04.08,0,.04.04,0ZM13.76,16.6s-.04-.38-.11-.83c-.11-.64-.15-.79-.19-.72-.04.08,0,.3.11.79.08.38.15.72.15.72l.04.04ZM13.5,16.83s0-.04,0,0v.08-.08ZM13.8,16.79v-.11s0,0,0,.04,0,.08,0,.04v.04ZM14.18,19.25c.04.08.08.08.08,0v-.11s0-.08-.04-.08v.19h-.04ZM14.33,2.94s.04-.04.04-.08q0-.08-.04-.04c-.04.08-.04.15,0,.11ZM15.77,5.13s0,0,0,.08,0,.11,0,.08v-.15ZM16.3,13s-.04-.64-.11-1.36c-.3-2.8-.3-3.06-.34-4.84l-.04-1.48v1.17c0,1.74.04,2.31.34,5.03.08.79.15,1.48.15,1.51s0,.04,0,0v-.04ZM16.34,13.23v-.11s0,0,0,.08,0,.11,0,.08v-.04ZM16.38,13.46s0-.04,0,0v.08-.08ZM17.09,17.01s0-.04,0,0v.08-.08ZM18.57,20.8c-.19.38-.19.42-.15.42,0,0,.08-.15.15-.34q.23-.49,0-.04v-.04ZM18.46,21.56c-.04.15.42-.83.68-1.48.15-.38.38-.98.53-1.36.23-.64.83-2.54.83-2.61,0-.04-.19.53-.42,1.21-.45,1.44-1.1,3.1-1.48,3.9-.04.11-.08.23-.08.26l-.08.08ZM18.49,21.33c-.04.11.15-.23.3-.57.08-.19.15-.34.15-.34,0,0-.42.87-.45.98v-.08ZM18.99,21.03c.04-.08.04-.15.04-.15,0,0-.11.23-.11.26s.04-.04.08-.15v.04ZM19.02,20.23s-.08.08-.08.08c0,.04.04,0,.08-.04.04-.04.08-.08.08-.11s-.04,0-.08.04v.04ZM19.21,20.53s-.19.3-.19.34.08-.08.15-.23c.04-.08.04-.11.04-.11ZM19.1,19.97v.11s0,.04.04,0c.04-.04.04-.08.04-.11s0-.04-.04,0h-.04ZM20.65,15.99v.08-.08s0-.04,0,0ZM22.43,21.82s.04-.08.04-.11,0-.04-.04,0v.11s0,.04.04,0h-.04ZM23.15,19.89s0-.04-.04,0-.04.08-.04.11.08-.08.08-.15v.04ZM23.3,19.32s0-.04,0,0v.08-.08ZM23.34,19.17s0-.04,0,0v.08-.08ZM23.41,18.91s0-.04,0,0v.08-.08ZM23.6,8.61s.04-.08.04-.08c0,0-.04.04-.04.08t0,0ZM23.98,7.63s-.34.83-.34.87c0,.08.04,0,.19-.38.08-.23.15-.42.15-.42v-.08ZM25.61,3.51v.11s0,.04.04,0,.04-.08.04-.11,0-.04-.04,0h-.04ZM25.72,3.39s.04,0,.08-.08c.04-.08.08-.15.08-.19s-.04,0-.08.08-.08.15-.08.19ZM25.91,4v.11s0,.04.04,0c.04-.04.04-.08.04-.11s0-.04-.04,0h-.04ZM26.02,3.77s.04-.08.04-.08c0,0-.04.04-.04.08t0,0ZM26.25,2.71s.04-.08.08-.15c.04-.08.08-.15.08-.15,0,0-.04.08-.08.15-.04.08-.08.15-.08.15Z"/>
    <path class="cls-1" d="M31.32,18.04c-.45-.91-.68-1.48-.91-2.38-.45-1.85-.57-4.65-.23-6.28.15-.76.34-1.29.79-2.19.91-1.78,1.74-2.91,3.18-4.35.87-.83,1.59-1.36,2.42-1.78.98-.49,1.85-.72,3.48-.95.08,0,.23-.04.34-.04.76-.11,1.59-.08,2.27.15.34.11.42.11.76,0,.11-.04.38-.08.61-.08.34,0,.45,0,.72.08.53.11.95.34,1.4.76.11.11.34.26.49.34.57.26,1.02.64,1.55,1.25.19.23.49.57.68.76.76.76,2.04,2.65,2.65,3.82.38.79.83,1.89.91,2.31,0,.08.04.15.08.19.04.04.04.08.04.08l.08.23c.04.11.08.23.08.23.04,0,.11.42.08.49,0,.04-.04-.04-.08-.26-.08-.34-.23-.83-.23-.79,0,0,.04.23.08.49.23,1.25.3,2.5.26,3.94,0,.49-.04,1.13-.08,1.4-.04.26-.08.49-.08.49.04.04.15-.68.23-1.29.08-.72.04-2.27-.04-3.03-.04-.3-.04-.49,0-.53.08-.08.19.95.23,2.01.04.91-.04,2.16-.19,2.91-.08.38-.34,1.32-.49,1.74-.26.72-1.02,2.23-1.48,3.03-.49.79-.68,1.1-1.17,1.66-.23.3-.45.61-.49.68-.11.15-.68.72-.98.98-.15.11-.3.23-.34.26-.15.11-.23.19-.53.42l-.3.23h-.04v.04s-.04.04-.08.04-.08,0-.08.04,0,.04-.04.04-.04,0-.04.04-.04.08-.08.08-.08.04-.08.04h-.08s-.23.15-.26.15c0,0-.04,0-.04.04-.04.08-1.06.49-1.4.57h-.3l-.45.08h-.42c-.15.04-1.63.08-1.63.04h-.19c-.23-.04-.34-.04-.45-.08h-.45s-.11-.04-.15-.08c-.04-.04-.08-.04-.08-.04,0,0-.08-.04-.15-.08-.08-.04-.15-.08-.15-.08,0,0-.08-.04-.19-.08-.11-.04-.23-.08-.26-.08s-.15-.04-.26-.08c-.11-.04-.38-.11-.61-.19-.38-.11-.79-.26-1.67-.64-1.13-.49-2.38-1.32-3.29-2.27-.76-.76-1.17-1.32-1.7-2.27-.11-.19-.26-.49-.38-.64-.19-.3-.34-.61-.83-1.63l.04.08ZM33.97,5.85s.08-.04.11-.08t0-.04s-.08.04-.11.08-.04.04,0,.04ZM34.2,5.51c-.23.34-.04.15.34-.34.23-.26.45-.53.53-.61.08-.08.11-.15.11-.15-.04-.04-.72.76-.98,1.14v-.04ZM35.94,3.62c-.19.19-.11.19.15,0,.11-.11.3-.26.42-.34.23-.19,1.17-.76,1.44-.87.11-.04.19-.08.19-.08-.04-.04-.87.38-1.02.49-.08.04-.26.15-.42.26-.34.19-.64.42-.83.61l.08-.08ZM43.24,4.15c-.45.15-1.51.64-1.48.68,0,0-.08.04-.15.11l-.15.15s-.08.08-.15.15c-.08.08-.19.15-.23.19s-.15.11-.23.19c-.26.19-1.29,1.25-1.66,1.7-.72.91-1.17,1.67-1.55,2.54-.49,1.06-.83,2.08-1.02,2.99-.11.53-.15.76-.23,1.36-.11.98-.11,2.91,0,3.63v.26c.08.79.45,2.23.57,2.27.26.08.79.19,1.17.23h.23c.72.11,1.4.11,2.19.04.42-.04,1.1-.15,1.29-.23.08-.04.15-.04.15-.04h.08c.08,0,1.29-.45,1.67-.61.34-.15,1.21-.61,1.55-.83.3-.19.61-.45,1.06-.87.45-.42.57-.53,1.02-1.14.45-.61.68-.98.87-1.4.08-.19.19-.45.26-.61.42-.91.68-2.08.8-3.59.04-.72.04-.91,0-1.55-.08-.98-.11-1.29-.3-2.01-.11-.45-.3-.83-.68-1.4-.68-1.02-1.44-1.89-2.19-2.57l-.19-.15h-.45c-.34,0-.45,0-.49.04s-.11.08-.19.08c-.49,0-.95.11-1.63.38h.08ZM36.51,3.13l.08-.04s.11-.08.15-.11l.08-.08-.08.04s-.11.08-.15.11l-.08.08ZM37.91,2.22c-.15.08-.26.15-.26.15,0,.04.08.04.23-.04.3-.15.49-.23.76-.3.45-.15,1.13-.38,1.59-.49.23-.08.57-.15.72-.19l.3-.08-.23.04c-.72.08-2.31.57-3.06.95l-.04-.04ZM38.25,2.33s-.04,0,0,0,.08,0,.11-.04t0-.04h-.11v.08ZM40.37,1.27s0,.04.34-.04c.19-.04.61-.08.91-.08l.57-.04-.34-.04h-.57c-.26.04-.91.15-.95.19h.04ZM41.62,1.39s.23.04.42,0c.11,0,.15,0,.11-.04-.08-.04-.53.04-.53.08v-.04ZM41.84,22.16s-.04,0,0,0h.08-.08ZM42,22.12s-.04,0,0,0h.08-.08ZM47.26,19.06c.26-.34.64-.91.45-.68-.04.04-.19.23-.34.42-.53.61-1.44,1.48-1.89,1.82-.19.15-.26.19-.23.11v-.04.08c0,.08-.34.3-.34.26s-.11,0-.26.11c-.53.3-2.31,1.02-2.61,1.06-.08,0-.08.08,0,.08.04,0,.19-.04.34-.08.38-.11.61-.19.72-.26.08-.04.15-.08.19-.08s.15-.04.23-.08c.08-.04.15-.08.19-.08s.04,0,.04-.04,0-.04.04-.04c.04.04.64-.26.98-.49.11-.08.23-.11.23-.11,0,0-.26.19-.8.49-.15.08-.26.15-.26.15.04.04,1.67-.95,1.78-1.1,0,0,.11-.08.23-.15.3-.23,1.17-1.06,1.51-1.48l-.19.11ZM43.74,21.78s.04-.04,0-.04h-.11s-.04,0,0,0,.08,0,.11-.04v.08ZM46.31,1.46c-.15-.08-.04,0,.19.11q.19.08.19.04s-.23-.15-.34-.19l-.04.04ZM47.56,22.09s0-.04-.04-.04-.04.04-.04.08,0,.04.04.04.04-.04.04-.08ZM47.71,21.97l.15-.15-.19.19-.08.08s.08-.04.15-.11h-.04Z"/>
    <path class="cls-1" d="M55.2,18.98s0-.04,0,0v.08-.08ZM73.59,4.94c0-.11-.04-.34-.08-.64v-.53c-.08-.68-.11-.95-.15-.98,0-.04-.04-.08-.04-.11q0-.08,0,0c0,.15-.11.11-.11-.04,0-.08,0-.11-.04-.11s-.04.08-.04.15v.15h-.3v-.23c0-.23-.04-.3-.15-.26-.04.04-.04,0-.04-.19,0-.11-.04-.26-.08-.3q-.04-.08-.04.11l-.04.19v-.23q0-.23-.11-.26c-.11-.04-.15-.08-.15-.15,0-.04-.04-.11-.08-.15q-.04-.08-.04.04v.11l-.04-.08s-.07-.11-.07-.15q0-.08-.04-.08s-.08-.04-.11-.08c-.04-.04-.08-.08-.15-.08s-.11,0-.11-.04c0-.08-.11-.15-.15-.11-.04,0-.04.04-.04.08s0,.11-.04.15t-.04-.04s0-.08-.04-.08-.04-.04-.04-.08c0-.08,0-.11-.07-.15-.04-.04-.08-.08-.08-.11s-.04-.08-.08-.08-.08-.04-.08-.08-.04-.08-.07-.08c-.04-.04-.08.11-.11.45,0,.11-.04.19-.04.19,0,0-.04.08-.07.15q-.04.11,0-.08c.04-.38,0-.83-.08-.87-.08-.04-.26.15-.34.34-.08.15-.34,1.29-.42,1.74-.04.26-.08,1.02-.11,2.08-.04.64-.04,2.35-.04,5.22,0,3.25,0,4.77-.04,6.28-.07,2.04-.07,2.35-.11,2.31l-.23-.3c-.38-.61-1.36-2.23-1.7-2.76-.42-.68-.91-1.44-1.44-2.27-.38-.57-.49-.76-1.29-1.82-.91-1.25-2.12-3.03-2.69-3.93-.19-.34-.53-.87-.72-1.17-.49-.76-.83-1.29-1.4-2.27-.15-.23-.3-.45-.38-.53-.08-.08-.23-.26-.34-.42-.49-.72-.87-1.13-1.14-1.29-.15-.08-.23-.11-.23-.08s0,.04,0,0c-.04-.08-.23-.23-.3-.23-.04,0-.04.04-.04.15q0,.15-.08.08s-.08-.08-.08-.11c0-.08-.08-.08-.11,0t0,0c-.04-.11-.08,0-.08.3v.3h-.11q-.11,0-.11-.08s0-.08.04-.08.04-.15-.04-.19c-.04-.04-.04-.11-.04-.3s0-.26-.04-.3q-.08-.08-.08.08t-.04.04c-.04-.15-.11-.15-.11,0q0,.11-.04.04-.04-.08-.08.04c-.08.15-.08.26-.15,1.06-.04.34-.08.79-.11.98q-.04.38-.04.15c-.04-.3-.23,1.06-.42,2.88-.15,1.59-.23,2.54-.26,3.9-.04.49-.08.95-.08,1.02,0,.11.04-1.4.08-2.01v-.38l-.04.45c-.04.23-.08.72-.08,1.06v.68c0,.11-.04.72-.08,1.67v1.25c0,.34-.04,1.21-.04,1.93-.04,1.32-.04,1.44-.08,1.48v.45q0,.15-.04.08c-.04-.19-.08.49-.08,1.51v.91s.04-.04.04-.11v-.08s.04.19,0,.19-.04,0,0,0c.04.04.04.11.08.61,0,.11.04.26.04.34s.04.42.08.76c.04.34.11.76.15.95.08.38.15.53.15.38v-.08l.04.11s.08.08.11.08c.08,0,.15.15.15.23h.04s.04.08.04.15c0,.42.11.72.53,1.44.23.42.34.57.38.53v.04s.04.04.08,0q.04-.08.08.04c.08.3.11.38.19.45.08.08.19.11.23.08v-.3s0-.04-.04-.04-.04-.11,0-.53c0-.11,0-.15-.04-.15s-.04-.04-.04-.15v-.26c0-.08.04-.11.08-.11.08,0,.11.11.11.38,0,.15,0,.19.04.15.04-.04.04-.15.04-.23,0-.26,0-.3.08-.3s.08,0,.08.3v.34s.04.3.04.61c0,.34.04.57.08.61.04.04.04.08.04.11-.04.08.23.19.45.19.15,0,.19,0,.23-.08.08-.15.11-.34.11-.49q0-.11.04-.04v.57c0,.15,0,.19.08.23h.11s.04,0,.04.04.11.04.15,0t0,0c0,.08.08.08.11,0,0-.04.04-.08.08-.11.04-.04.04,0,.04.11s0,.11.04.04q.04-.08.04,0c0,.08.04.08.11.08s.11.04.15.08c.04.04.08.04.08,0s0-.04.04,0c.04.08.08.04.26-.3.08-.15.23-.42.34-.57.11-.15.23-.42.26-.57.11-.34.15-.53.04-.26-.08.19-.08.15,0-.26.08-.45.08-2.23,0-2.91-.04-.26-.08-.72-.08-1.02v-.57s-.04-.23-.04-.45c-.04-.95-.08-1.55-.11-1.7v-2.16c-.04-.98-.08-1.4-.08-1.51,0-.19-.04-.83-.08-1.48v-3.37c-.04-.68-.08-1.06-.08-1.06,0,0,.11.19.26.45.49.91.83,1.55,1.51,2.76,1.32,2.35,1.93,3.48,2.57,4.77,1.25,2.57,1.55,3.22,1.93,3.9,1.06,1.85,1.51,2.46,2.8,3.78.34.34.42.42.95.83.3.26,1.02.61,1.29.64.11,0,.3.04.42.08.34.15.61.23.76.19.08,0,.15-.04.15-.04h.53c.07-.04.15-.19.23-.38.04-.11.08-.15.15-.15h.19q.07,0,.04,0c-.15-.04-.19-.15-.07-.3.04-.04.04-.08.04-.08,0,0,.04-.04.07-.08.11-.08.19-.3.23-.64.04-.38,0-6.51-.04-7.23-.04-.3-.08-.76-.08-1.02s-.04-.87-.08-1.32-.08-.95-.08-1.1-.04-.53-.07-.83c-.04-.3-.08-.68-.08-.83-.04-.42-.11-4.09-.11-4.24.08-.61.08-2.12,0-2.76l-.34-.61ZM55.24,20.23v.11s0,0,0-.04,0-.08,0-.04v-.04ZM55.24,20.57s0,0,0-.08,0-.11,0-.08v.15ZM56.76,3.54s0,0,0-.04,0-.08,0-.04v.11-.04ZM56.79,2.64c0,.19,0,.08,0-.26s0-.49,0-.34v.61ZM56.98,1.84v-.08s0-.04,0,0v.08ZM56.98,1.99v-.08s0-.04,0,0v.08ZM57.51,1.95s0-.04,0,0v.08-.08ZM57.59,2.45v-.26c0-.08,0-.11.04-.11s.04.04.04.23v.15h-.08ZM70.94,4.57c0,.15-.04.79-.07,1.4-.04.79-.04,1.82-.04,3.44v4.01c.04,1.59,0,4.31-.08,6.05-.04.49-.08.91-.08.95-.04.04-.04-.11-.04-.38.07-1.78.11-6.62.04-8.67-.07-2.31-.04-5.22.08-6.7l.04-.34.15.23ZM70.83,4.26s0,0,0-.04,0-.08,0-.04v.11-.04ZM73.44,26.47c-.04-.08,0-.11.08-.11.04,0,.04.04.04.08,0,.08-.11.11-.15.04h.04ZM73.48,26.66s-.04.04-.04.04v-.04s.04-.04.08-.04.04,0,.04.04h-.08ZM73.75,26.66s-.08.08-.11.08c0,0,0-.04.04-.11.04-.08.08-.11.08-.08s0,.08-.04.11h.04ZM74.01,25.91c.08-.04.11,0,.08.08-.04.11-.11.11-.11,0,0-.04.04-.08.08-.08h-.04Z"/>
    <path class="cls-1" d="M76.89,23.98c-.04-.3-.04-.38-.08-.53v-.83c0-.57.04-.95.11-1.55.07-.64.19-1.63.3-2.5.04-.23.08-1.29.11-2.08,0-.38.04-.68.04-.68v.15-.49c0-.64.11-2.84.15-3.33.04-.53.08-.72.11-.95.04-.15.04-.11.04.19v.34s.11-.72.26-1.97c.07-.79.07-.95.11-2.12.08-2.08.08-2.27.15-2.19,0,.04.04-.08.07-.26.08-.45.15-.83.19-.79,0,.04.04,0,.08-.11.11-.19.26-.3.3-.19t.04,0s.08-.04.19.04l.15.08.15-.15c.23-.26.83-.64,1.48-.91.53-.23.23-.11-.53.19l-.15.08.11-.08s.23-.15.42-.23c.23-.11.34-.19.34-.23-.04-.04.23-.15.76-.34,1.02-.38,1.89-.61,3.1-.76.23-.04.49-.08.57-.08.23-.04.79-.04,1.17,0,1.1.08,2.19.45,3.25,1.14.26.15.64.38.87.49.76.42,1.59,1.1,2.27,1.85.19.23.57.64.83.95.72.76,1.1,1.25,1.63,2.12,1.1,1.78,1.51,3.22,1.51,5.41,0,.45-.04,1.06-.08,1.32-.08.95-.38,2.5-.64,3.44-.11.38-.23.83-.26.98-.15.61-.8,2.31-1.1,2.95-.72,1.48-1.55,2.8-2.31,3.63-.3.34-.98.95-1.32,1.17-.42.3-1.55.98-1.85,1.14-.57.26-1.4.57-1.78.64-.61.11-.91.15-.95.11s-.04-.04-.04,0-.04.04-.07.04h-.15q-.08,0-.08.04s0,.04-.04,0c-.08-.04-.15-.04-.15,0s-.04.04-.11.04-.15-.04-.15-.08,0-.04-.04,0t-.04,0s0-.04-.04,0t-.04,0s0-.04-.04,0t-.04,0s-.04-.04-.08-.04-.08,0-.08-.04,0-.04-.04,0t-.04,0s0-.04-.04,0t-.04,0s0-.04-.04-.04-.04,0-.04-.04,0-.04-.04,0t-.04,0s0-.04-.04,0-.04.04-.04,0,0-.04-.04,0-.04.04-.04-.04,0-.08-.04-.04t-.04,0s0-.04-.04,0t-.04-.04s0-.04-.04,0t0,0s-.08-.08-.15-.08h-.26c-.57-.11-1.7-.45-2.42-.72-.49-.19-.57-.19-.57-.04,0,.04-.11.19-.23.38l-.23.34-.04-.15c-.04-.3-.07-.53-.11-.61-.04-.04-.08-.15-.08-.26,0-.15-.04-.23-.08-.26s-.07-.04-.07-.04c0,0-.04.23-.04.49-.04.57-.08.64-.19.72q-.15.08-.19-.45v-.26l-.04.34c0,.19-.04.38-.04.42-.04.11-.07,0-.07-.19v-.34l-.04-.15v.15c0,.08-.04.15-.08.15s-.04.08-.04.23c0,.19,0,.23-.04.23s-.04-.04-.04-.34,0-.38-.04-.38-.04.08-.04.34c0,.3-.04.42-.08.26l-.04-.08-.07.08-.08.08-.04-.08s-.08-.04-.08,0c-.04.08-.11.04-.15-.08q-.04-.08-.04-.04s-.04.04-.15-.04c-.08-.04-.15-.08-.19-.08-.07.04-.23-.08-.26-.15-.04-.04-.07-.08-.11-.08-.11,0-.34-.26-.49-.53-.11-.19-.15-.26-.15-.53,0-.19-.04-.38-.08-.49l-.07-.15.04.26c0,.15.04.3.04.34v.08s0,.04.04.08c.08.11,0,.08-.08-.04-.07-.11-.34-.61-.42-.79-.04-.08-.11-.23-.19-.34-.08-.11-.15-.3-.19-.42-.07-.26-.23-1.14-.26-1.55l.19-.08ZM77.8,25.11c0,.08,0,.11,0,.08v-.15s0,0,0,.08ZM78.06,11.64s0,0,0,.08,0,.11,0,.08v-.15ZM79.39,28.18s0-.04,0,0v.08-.08ZM79.73,4.19s0,.04.04.08q.04.08.23-.04c.11-.08.3-.19.45-.26.45-.26,1.17-.61,1.59-.76.07-.04.11-.08.11-.08-.04-.04-.87.26-1.29.45-.42.19-1.14.57-1.14.61ZM81.62,22.09c0-.34,0-1.4-.04-2.38-.04-.98-.07-2.12-.07-2.54v-2.8c-.04-3.25-.11-4.62-.3-6.36-.04-.45-.08-1.02-.08-1.25s-.04-.42-.04-.42c0,0-.08,0-.15.04-.11.04-.15.08-.15.15v.15q.04.08.04,0v-.08s.04.34.08.72c.04.38.08.76.08.83.04.15.15,1.59.19,2.04.04.87.08,1.67.08,3.22v8.14c0,1.21-.04,1.93-.11,2.8v.34s.15,0,.15-.08c.04-.19.15-2.04.19-2.57l.15.04ZM88.96,5.09c-.45-.04-2.08,0-2.76.08-1.17.11-2.46.3-3.25.49-.23.04-.42.08-.45.08s-.04,0-.04.04-.04.04-.08.04-.26.04-.53.11c-.26.08-.49.15-.49.15v.19c.04.15.3,1.93.34,2.23.04.11.11.87.15,1.13v.34c0,.08.04.42.08.79.04.38.08.79.08.91.04.26.07.76.11,1.32v1.21c0,.19.04.57.04.83.04.68.08,1.1.11,1.67v2.76h-.04s-.04.04-.04.11q0,.15.04.04c0-.08,0,.08,0,.34v.45c.08-.04.11,1.85.08,3.18l-.04.8.15-.04c.08,0,.3-.04.49-.08.49-.08,1.89-.42,2.31-.57.53-.19,1.55-.64,1.89-.83.68-.38,1.4-.91,1.89-1.36.6-.57.83-.83,1.32-1.59.45-.68.61-.98,1.02-1.89.49-1.1.91-2.57,1.21-4.09.19-.91.26-1.85.26-2.69,0-.57-.07-1.63-.15-2.08-.11-.53-.34-1.32-.49-1.63-.23-.42-.98-1.21-1.67-1.74-.42-.3-.91-.45-1.78-.57l.23-.15ZM81.51,2.75s.11.04.15,0v-.04s-.11,0-.11.04h-.04ZM81.77,2.71s0,.04.04.04.04,0,.04-.04,0-.04-.04-.04-.04,0-.04.04ZM82,2.64h-.08s0,.04.15,0c.68-.23,1.25-.38,1.86-.49.15-.04.23-.08.19-.08s-.23.04-.45.08c-.23.04-.45.08-.49.08-.11.04-.87.23-.95.26h-.11s-.07,0-.07.04-.04.04-.08.04l.04.08ZM82.45,24.66h-.08s-.04,0,0,0h.08ZM82.75,25.23s.08,0,.04,0h-.11s-.04,0,0,0h.08ZM83.21,2.48c-.08.04-.08.08-.04.08,0,0,.04,0,.04-.04s0-.04-.04-.04h.04ZM83.43,2.45h.08-.08s-.04,0,0,0ZM83.74,2.41h.15s-.04-.04-.19,0l-.15.04.15-.04h.04ZM83.81,2.52s-.04,0,0,0h.08-.08ZM84.38,2.18h-.19c-.26.04-.34.08-.34.11,0,0,.11,0,.23-.04s.3-.08.42-.08h.34c.23-.04,1.06-.11,1.55-.11h.11s-.87-.04-1.02,0h-.34c-.23.04-.38.08-.76.15v-.04ZM84,2.48h.08-.08s-.04,0,0,0ZM84.23,2.45h.08-.08s-.04,0,0,0ZM84.23,2.07s0,0,.08,0,.11,0,.08,0h-.15ZM84.49,2.03s0,0,.08,0,.11,0,.08,0h-.15ZM84.87,1.99c.08,0,.11,0,.08,0h-.15s0,0,.08,0ZM85.18,1.95c.08,0,.11,0,.08,0h-.15s0,0,.08,0ZM85.55,1.92s0,0,.11,0,.15,0,.11,0h-.23ZM87.07,1.65c.08,0,.11,0,.08,0h-.15s0,0,.08,0ZM87.22,1.69l.26.04c.15.04.3.08.34.08q.08,0-.04-.04c-.08,0-.23-.04-.38-.04l-.19-.04ZM87.9,1.84h.07-.07s-.04,0,0,0ZM88.05,24.09s0-.08-.04-.08v.08c0,.08.04.08.08,0h-.04ZM89.07,23.22c.08-.04.11-.08.11-.08,0,0-.11.08-.23.19-.11.11-.3.26-.42.34-.15.11-.19.19-.19.23s0,.04-.04,0c-.04-.04-.07-.04-.15.04-.26.19,0,.15.26-.04.42-.26.53-.38.53-.45,0-.04.04-.08.11-.15v-.08ZM88.28,23.3c.08-.08.15-.15.15-.15,0,0-.08.04-.15.11-.07.08-.15.15-.15.15,0,0,.08-.04.15-.11ZM89.11,23.37q.04-.08,0-.04s-.07.08-.07.08c0,.04.04,0,.07-.08v.04ZM89.26,22.99q0-.08-.04-.04s-.04.08,0,.08.04.04.04.08v.04s.04-.04.04-.08l-.04-.08ZM89.83,21.78l-.23.26c-.26.26-.38.42-.3.38.04,0,.19-.15.34-.3l.19-.34ZM89.45,22.96s0-.04-.04-.04-.04,0-.04.04v.04-.04h.08ZM89.57,22.8v-.08c0-.08-.04-.04-.04.08v.08l.04-.08ZM89.72,22.61v-.08c0-.08-.04-.04-.04.04,0,.04,0,.08.04.08v-.04ZM89.87,22.35s.04-.04,0-.08t-.04.04s0,.04-.04.04-.04,0-.04.04.04.04.08-.04h.04ZM90.81,21.06c.11-.15.19-.3.19-.34s0-.08.04-.08.04-.04.04-.08.04-.08.08-.08.04,0,0,0-.15.15-.26.34c-.11.19-.23.38-.26.42s-.04.08-.04.08c0,0,.11-.11.23-.26ZM91.95,19.74s0,.04.04,0c.07-.08.57-1.25.57-1.36,0-.04.04-.11.08-.15t0,0s-.04.04-.04,0v-.11s0-.04.04-.04.04,0,.04-.04.04-.19.08-.34.07-.26.07-.26c0,0-.04.11-.07.26s-.15.38-.23.53c-.08.15-.11.3-.11.34v.11s-.38.83-.42.87c0,0-.11.23-.23.49-.34.68-.64,1.25-.76,1.44-.07.08-.11.15-.11.15,0,0,.11-.15.23-.34.38-.53.64-.95.61-.98t.04-.04s.11-.11.08-.19v-.08s.04,0,.04.04v.08s.19-.34.15-.38v-.08s.04,0,.04.04l-.11.04ZM94.11,23.6c.11-.19.07-.11-.34.49-.38.49-.91,1.13-1.14,1.36-.08.08-.15.15-.15.15,0,.04.53-.53.76-.83.23-.3.72-.98.87-1.25v.08ZM93.54,13.57c-.15.91-.68,3.25-.91,3.94-.19.61-.15.57.04-.04.57-1.74.83-2.91.87-3.86,0-.3-.04-.34-.08-.08l.08.04ZM92.74,17.43s0,.04.04.04.04,0,.04-.04v-.04.04h-.07ZM92.82,17.35s0-.04,0,0v.08-.08ZM93.65,12.28v1.02s.04-.26.08-.57c.08-.87.08-2.01-.04-1.89-.04.04-.04.19-.07,1.44h.04ZM96.68,11s.04.23.08.49c.04.27.08.57.08.68v.23-.26c0-.15-.04-.45-.08-.68-.04-.23-.08-.42-.08-.42v-.04ZM96.94,12.59s0,0,0,.08,0,.11,0,.08v-.15Z"/>
    <path class="cls-1" d="M99.03,24.81c-.08-.08-.34-.91-.42-1.32-.19-1.13-.19-2.19,0-4.88.04-.57.08-1.44.11-1.93.04-.49.08-1.21.11-1.59.04-.38.08-.79.08-.95.04-.26.08-.57.11-.87v-.53c.07-1.44.23-2.99.49-5.18.04-.26.08-.76.15-2.19.04-.42.08-.76.08-.76v-.19c-.04-.15-.04-.19,0-.23.08-.08.04-.11-.08-.08-.04,0-.04-.04.04-.08l.08-.08s.04-.04.08-.08.07-.11.07-.15c0-.08.23-.3.26-.26.04,0,.08,0,.08-.04.04-.04.19,0,.3.08q.11.08.34-.04c.76-.3,2-.61,2.99-.72.95-.11,1.51-.15,2.8-.19,2.8-.08,5.3.04,5.64.23.08.04.19.11.26.19.11.08.23.15.34.19l.15.04h-.15c-.26,0-.23.08.04.11.3.04.34.04.3.08,0,.04.04.04.07.04.08,0,.34.23.34.3,0,.04-.08.04-.23.04-.08,0-.11,0-.11.04s.04.04.11.04c.19,0,.3.04.3.11,0,.04.04.08.08.08h.15c.15.08-.19.23-.57.23-.08,0-.11,0-.11.04s.04.08.07.08.04,0-.04.04c-.04.04-.04.08,0,.08s.04.04.04.08c-.04.04,0,.04.45,0,.53-.04.87,0,.49.04h-.53c-.19,0-.38.04-.42.08s-.34.08-.64.08c-.57.04-1.59.15-1.55.19,0,0,.68-.04,1.59-.11.72-.08,1.59-.11,1.66-.08t-.04.08c-.11.15-.19.15-.68.19-1.1.11-2.19.23-2.19.26h-.11c-.26.04-.42.08-.45.08s-.42.08-.6.11h-.3c-.08,0-.3.04-.61.08h-.19c-.53.08-.91.15-.91.15-.08.08,0,.08,1.1-.11.42-.08.79-.15.87-.15h.76c.08,0,.11,0,.11.04s0,.04-.04.04-.08,0-.08.04-.26.11-.61.19c-.57.11-.83.19-.53.15h.15s-.79.23-2.12.53c-.95.23-1.97.42-2.16.42h-1.06c-.11,0-.19,0-.19.04s0,.04,0,0t-.04,0s0,.04-.04,0t-.04,0s0,.04-.04,0-.04-.04-.04,0,0,.04-.04,0-.04-.04-.04,0,0,.04-.04,0t0,0s-.04.04-.07.04-.08,0-.08-.04,0-.04,0,0-.04.04-.08.04-.08,0-.08-.04,0-.04,0,0,0,.04-.04,0t-.04,0s0,.04-.04,0l-.08-.08h-.34c-.23,0-.3,0-.26-.04t0,0s-.04-.04-.04-.08.08-.08.19-.08c.26,0,1.14-.08,1.25-.08h.23c.42-.04.49-.04.49-.08v-.04h-.42c-.19.04-.45.08-.76.08h-1.17s-.04.04-.04.15c.11.8.3,3.52.42,5.83.07,1.59.07,1.7.15,1.67s1.06-.15,1.48-.19c1.02-.11,1.67-.15,2.72-.15s1.82.04,2.19.11c.15.04.23.08.38.23.11.11.26.19.34.23l.11.04h-.15c-.23,0-.15.08.11.11.15.04.3.08.38.11.11.08.23.19.23.26,0,.04.26.3.38.38.11.08.11.11,0,.11h-.08s.08.08.15.08c.04,0,.07,0,.07.04s-.04.04-.11.04-.11,0-.11.04.04.08.19.08c.3.04.26.08-.07.08h-.3s.11.04.26.04c.23,0,.3.04.34.08.07.08.07.11,0,.23-.04.04-.08.11-.08.15s-.04.04-.08.04c-.83,0-1.93.15-3.29.45-.64.15-.6.15.08.04.53-.11.64-.11.64-.08h-.08s-.08,0-.11.04c-.04.04-.07.04-.07.04,0,0-.04,0-.08.04s-.08.04-.11.04-.07,0-.07.04-.04.04-.08.04-.08,0-.08.04-.04.04-.04.04c0,0-.04,0-.07.04-.04.04-.08.04-.08.04,0,0-.04,0-.04.04s-.04.04-.08.04-.07,0-.11.04t-.08,0s-.04-.04-.04,0-.04.04-.08.04-.07,0-.07.04-.04.04-.08.04-.08,0-.08.04-.04.04-.07.04h-.08s-.23.11-.45.15c-.08,0-.19.04-.26.04s-.19.04-.26.04h-.53s-.15.04-.3.04h-.19s-.04,0-.04-.04,0-.04-.04,0t-.04,0s0-.04-.04,0c0,.04-.04.04-.08.04s-.08,0-.08.04c0,0-.04,0-.07-.04s-.04-.04-.04,0,0,.04-.04,0-.04-.04-.04,0,0,.04-.04,0-.04-.04-.04,0,0,.04-.04,0t-.04,0s0,.04-.04,0-.04-.04-.04,0,0,.04-.04,0-.04-.04-.08,0t-.04,0s0-.04-.04,0-.04.04-.04,0-.08-.04-.23-.04c-.34,0-.38,0-.34-.04,0,0,.19-.04.42-.08l.42-.04h-1.17l.04.19c0,.11.04.61.08,1.1.04.49.07,1.1.11,1.32.08.57.11,1.4.15,2.54l.04.91.15-.04c.72-.11,2.04-.15,2.95-.11.87.04,1.51.08,1.89.11.08,0,.3.04.49.08,1.25.15,1.89.26,2.04.42.11.11.07.15-.19.11h-.26s.11.08.49.11c.11,0,.23.04.23.08s.07.08.19.11q.3.08.26.11h-.08q-.07,0,.04.04c.26.08.15.15-.19.15s-.34.08,0,.11c.15.04.23.08.23.11s.04.08.08.08h.42c.11,0,.19.04.23.08.04.04.04.08.04.08h-.23c-.11,0-.26,0-.34.04q-.11.04.23.04c.26,0,.42.04.53.08.15.08.19.15.15.34q0,.11.11.15t-.04.04c-.15,0-.19,0-.11,0,.3.04.42.08.42.11h-.27c-.34,0-.53.04-.53.11,0,.04.08.04.38.04.42,0,.49.08.08.08-.19,0-.3,0-.3.04s.04.04.15.04c.26,0,.38.04.38.11-.04.15-.15.23-.49.26-.19.04-.49.08-.72.11-.76.11-3.33.42-4.12.49-1.89.15-3.22.19-4.16.08l-.38-.04-.04.15c-.04.34-.04.38-.08.45s-.04.04-.04-.26v-.3.15c0,.3-.11.76-.23.98q-.19.34-.23.26s-.04-.08-.11-.08c-.11,0-.15-.08-.15-.3,0-.08,0-.38-.04-.68-.04-.49-.04-.53-.11-.53s-.07.04-.07.72c0,.42,0,.72-.04.72-.11,0-.61-.19-.64-.23-.04-.08-.11-.45-.15-.83s-.08-.45-.15-.38c-.04.04-.04.08,0,.19.04.08.04.15.04.15,0,0-.04-.08-.07-.19-.04-.15-.15-.3-.23-.3v.15c.04.26.08.83.04.83,0,0-.04-.08-.08-.19-.07-.23-.15-.38-.11-.23.08.27.08.38.04.38-.08,0-.11-.11-.19-.42-.04-.15-.07-.26-.07-.26v.34q0,.38-.26.19c-.23-.15-.57-.68-.68-1.06-.04-.15-.15-.79-.15-.91h-.08s-.04.04,0,.23c0,.11.04.26.04.3.04.15,0,.08-.19-.27-.26-.49-.38-.72-.49-1.06-.04-.15-.11-.3-.15-.34l-.19.19ZM102.77,5.93s.26,0,.53-.04l.15-.04h-.15c-.23,0-.53.04-.53.08ZM103.64,17.7s-.04.23.04,1.63c.04.53.08,1.36.08,1.85v2.31-1.78c-.04-1.67-.08-3.29-.11-3.82,0-.15-.04-.23-.08-.23l.08.04ZM103.91,20.84c0-.11,0-.04,0,.19s0,.3,0,.19v-.42.04ZM105.35,6.12s-.07.04-.07.08v.04h.53s.07,0,.07-.04-.04-.04-.11-.04h-.45l.04-.04ZM105.54,26.85s-.04,0,0,0,.07,0,.04,0h-.11.08ZM105.99,6.08s-.08.04-.08.08.04.04.08.04.08-.04.08-.04h-.08v-.08ZM106.1,6.15s0,.04.08,0,.08-.08,0-.04c-.04,0-.08.04-.08.04ZM106.29,6.12s0,.04.04.04.04,0,.04-.04,0-.04-.04-.04-.04,0-.04.04ZM106.41,6.04h.15-.15ZM106.63,6s-.04,0-.04.04,0,.04.04.04h.04-.04v-.08ZM106.82,6.08s-.04,0-.04.04v.04-.04s0-.04-.04-.04h.08ZM106.86,6.08s-.04,0-.04.04,0,.04.04.04h.04-.04v-.08ZM106.94,6.15h.08s.08-.04.08-.04h-.08s-.08.04-.08.04ZM107.13,6.12s0,.04.07,0c.08-.04.08-.08,0-.04-.04,0-.07.04-.07.04ZM107.31,6.08s0,.04.04.04.04,0,.04-.04,0-.04-.04-.04-.04,0-.04.04ZM107.47,6.04s-.04,0-.04.04,0,.04.04.04h.04-.04v-.08ZM107.54,6.12h.15-.15ZM107.73,6.12s0,.04.04.04.04,0,.04-.04,0-.04-.04-.04-.04,0-.04.04ZM107.88,6.08s-.04,0-.04.04c0,.08.04.08.08.04,0,0,0-.04-.04-.04v-.04ZM108.07,6.08c-.08,0-.11.04-.11.04,0,.04.23,0,.26-.04.04-.04,0-.04-.11-.04l-.04.04ZM108.26,6.04s0,.04.04.04.04,0,.04-.04,0-.04-.04-.04-.04,0-.04.04ZM108.37,6s0,.04.04.04.04,0,.04-.04,0-.04-.04-.04-.04,0-.04.04ZM110.72,26.44s0,.04.04.04.04,0,.04-.04,0-.04-.04-.04-.04,0-.04.04ZM111.02,5.06s0,0,.08,0,.11,0,.08,0h-.15ZM111.4,26.36h.08-.08s-.04,0,0,0ZM112.38,26.29h.08-.08s-.04,0,0,0ZM112.54,26.29h.07-.07s-.04,0,0,0Z"/>
    <path class="cls-1" d="M120.22,1.39s.07-.04.15-.11c.38-.26,1.17-.57,1.85-.72.61-.15.87-.19,1.4-.19,1.06,0,1.85.26,2.91.91.19.11.49.3.64.38.91.49,1.78,1.17,2.27,1.78.11.15.3.34.42.42.42.34.91.98,1.17,1.55.49.98.68,2.16.57,3.33-.07.72-.49,2.31-.83,3.18-.23.53-.87,1.82-1.13,2.23-.11.19-.19.34-.19.34,0,0-.04.08-.11.15-.11.11-.15.23-.08.19h.04-.08s-.08.04-.08.08,0,.04.04.04c.08-.04.08,0,0,.04t0,0s.04-.04,0,0c-.04.04-.07.08-.07.11v.04s-.08.04-.11.11c-.04.08-.23.3-.42.53-.34.42-1.4,1.44-1.44,1.4v.04s-.04.08-.08.08-.11.04-.15.08l-.08.08s-.11.08-.08.11c0,0,0,.04-.04.04s-.04,0-.04-.04v-.04s-.11.08-.08.11c0,0,0,.04-.04.08t0,0s.04-.08,0-.08-.08.08-.08.11c0,0-.07.08-.15.15-.08.08-.15.11-.15.11,0,0,.08-.08.15-.15.08-.08.15-.15.15-.15,0,0-.23.15-.49.34-.49.34-.87.57-1.21.76-.23.11-.3.19-.26.19s.38-.19.76-.42c.15-.08.3-.15.34-.19l.07-.04-.07.08s-.3.19-.57.34c-.42.27-.45.3-.38.34s.11,0,.42-.19c.11-.08.23-.15.23-.15,0,0,.15-.11.34-.23.42-.26.53-.34.53-.3s-.79.57-1.17.8l-.23.15.42.19c.23.11.83.38,1.32.61.49.23,1.48.68,2.19,1.02,2.16.98,2.91,1.4,3.33,1.74.07.08.3.23.49.34.83.45,1.32.8,1.78,1.25.15.15.34.3.42.34.19.08.26.15.19.19t0,0c.08,0,.23.11.23.15,0,0-.04.04-.08.04s-.07.04-.07.08.04.04.19.04c.08,0,.11.08.04.11t0,.04s.08.08.11.08.08.04.11.08c.04.04.08.08.11.08s.08.04.08.08.04.08.07.08.04.04.04.08.04.04.15.04h.15l.08.08s.07.11.07.15,0,.08.04.08.04.04.04.15c-.04.19-.08.23-.19.23q-.08,0,0,.08s.04.04.11,0,.08-.04.04,0c-.04.04-.04.08-.04.08,0,0-.04.08-.07.15-.08.08-.11.11-.19.11-.11-.04-.15,0-.04.08q.07.04,0,0h-.15s-.08,0-.08.04.04.04.08.04.08,0,.08.04,0,.04-.04.04-.04.04,0,.08c.04.04.04.08,0,.08-.04.04-.08,0-.19-.08-.04-.04-.15-.08-.27-.11-.11-.04-.3-.11-.42-.15-.11-.04-.23-.08-.26-.08-.15,0-.64-.23-3.1-1.48-2.91-1.44-4.16-2.01-5.34-2.42-.23-.08-.45-.15-.49-.15s-.11-.04-.15-.04h-.15s-.07,0-.07-.04v-.04s-.04,0-.04-.04-.04-.04-.04-.04v-.08s-.04,0-.08-.04t0,0s0,.04-.08,0c-.04-.04-.07-.04-.07-.04v-.04s-.91-.26-1.85-.49c-.42-.11-.98-.26-1.25-.34-.26-.08-.49-.11-.49-.11,0,0,.04.49.08,1.1.04.61.11,1.63.15,2.27s.08,1.59.11,2.08c.04,1.17,0,1.36-.23,1.89-.19.38-.34.57-.45.57h-.07s0-.04.04-.04c.08-.04.04-.08-.15-.11-.11,0-.26-.04-.3-.08s-.11-.08-.15-.08-.08-.04-.11-.15c0-.08-.04-.15-.08-.15s-.04,0,0,0t0-.04s-.04.04-.04.11q0,.19-.23.11c-.23-.08-.26-.15-.26-.34q0-.08,0-.04c-.04.15-.11.19-.19.11l-.04-.08v.11c0,.11-.04.15-.08.08,0-.04-.04-.3-.07-.61-.04-.34-.08-.49-.08-.38s0,.15-.04.15-.04.08-.04.3q.04.3-.04.3c-.11,0-.26-.08-.3-.15-.04-.04-.11-.08-.15-.11-.08-.04-.08-.08-.11-.3-.04-.15-.04-.3-.04-.34s-.04-.04-.11-.04h-.15q-.08.04-.19-.11c-.15-.23-.42-.76-.45-.95-.04-.08-.08-.34-.11-.61-.04-.26-.07-.49-.07-.49h-.08q-.08.04-.04.19c.04.26-.04.11-.11-.26-.04-.19-.08-.42-.08-.49s-.04-.26-.08-.42-.08-.3-.08-.34c-.04-.11,0,.26.04.53.04.11.04.26.04.34l-.04.11-.07-.19c-.08-.26-.11-.49-.19-1.06-.04-.23-.07-.57-.11-.76-.04-.26-.04-.45-.04-1.1v-5.6.53c.08,1.55.08.87.08-3.29,0-2.76,0-4.54.04-4.65.04-.15.04,0,.04.64v1.25c.04.53.11,1.44.15,1.66.04.42.07,1.32.11,3.52v4.28c0,3.07,0,3.18.08,3.71.04.3.08.57.08.57v-3.14c0-3.18-.04-4.54-.11-4.69-.04-.04-.04-.08,0-.11.04-.04,0-1.29-.08-2.5-.07-1.13-.11-1.74-.07-1.7v.79c.04.64.04.87.07,1.85v.49s0-1.93-.04-2.57c-.11-1.89-.15-3.9-.11-5.15.04-1.06.11-1.97.19-2.65.04-.53.04-.76.08-1.63.08-.98.08-1.06.15-1.1.11-.04.15.04.19.26,0,.15.04.19.07.19.08-.04.11.08.11.49v.38s.04-.11.08-.64c0-.11.04-.23.04-.23.04-.04.04.11.04.3,0,.08,0,.11.04.11s.04-.08.04-.15c0-.11,0-.15.04-.11.04.04.04.11.04.19s0,.11.04.11.04-.08.04-.19c0-.19.04-.26.07-.11v.08-.08c0-.11.04-.11.15-.04.04.04.08.08.08.08,0,0,.07-.11.19-.26.23-.38.72-.91,1.17-1.25.42-.34.45-.38.3-.3s-.68.45-.91.68l-.19.19.19-.19c.34-.34.6-.57.91-.8.15-.11.3-.23.3-.23l-.11.34ZM119.46,15.99c.04.19.04,0-.04-.53-.23-1.85-.3-3.22-.42-6.66-.04-.76-.08-1.44-.08-1.51-.04-.08-.04.04-.04.34,0,.23.04,1.02.07,1.74.08,2.27.11,3.25.15,3.9.07.79.26,2.57.3,2.69l.04.04ZM125.44,3.39c-2.31.08-4.24,1.02-5.64,2.72l-.23.26v.57c0,.08.04.45.08.87s.07.83.07.95c.04.26.11,1.29.19,2.38.07,1.59.23,2.95.42,4.12.04.3.08.57.08.57,0,.04.11,0,.49-.19.79-.38,1.89-1.02,2.61-1.55.45-.34,1.1-.91,1.51-1.36,1.44-1.51,2.72-3.67,3.14-5.34.19-.76.26-1.63.19-2.23-.07-.53-.07-.57-.38-.79-.57-.49-1.14-.79-1.67-.95-.26-.08-.34-.08-.95-.08l.07.04ZM127.94,16.18s-.04.04-.08.08-.07.08-.07.08c0,0,.04-.04.07-.08s.08-.08.08-.08ZM128.24,15.84s-.08.08-.15.15c-.07.08-.11.15-.11.15,0,0,.08-.08.15-.15.08-.08.11-.15.11-.15ZM128.47,15.65s-.04.04-.08.08-.07.08-.07.08c0,0,.04-.04.07-.08s.08-.08.08-.08ZM128.88,6.23v.19q.04.08.04,0v-.19l-.04-.11v.11ZM131.57,7.44s0,0,0,.11,0,.15,0,.11v-.23ZM131.61,7.97s0,0,0,.08,0,.11,0,.08v-.15ZM136.04,26.7s-.08,0-.08.04v.04s.04,0,.04-.04,0-.04-.04-.04h.08Z"/>
    <path class="cls-1" d="M168.96,16.61c-.11.41-.19.68-.23.68s-.04,0-.04.04c.04.04-.23,1.05-.26,1.02v.08c.04.11-.53,1.88-.6,1.84t-.04.04s-.08.38-.11.34v.04s-.08.26-.15.49c-.23.56-.23.53-.26.49-.04-.04-.08.08-.04.11v-.08s-.04.15-.08.11t-.04.04c.04.08,0,.15-.04.11t-.04.04c.04.08,0,.19-.04.15t-.04.04c.04.08,0,.19-.04.15t-.04.04c.04.08,0,.19-.04.15t-.04.04c.04.08-.56,1.39-1.09,2.33-.64,1.17-.87,1.39-1.36,1.39-.23,0-.75-.11-.9-.19-.04-.04-.19-.08-.34-.11-.3-.08-.38-.11-.49-.23-.04-.04-.15-.08-.23-.11-.34-.08-.83-.53-1.09-.98-.08-.11-.19-.3-.26-.41-.38-.45-.79-1.32-1.17-2.48-.08-.23-.19-.53-.26-.68-.23-.41-.56-1.54-.94-3.05-.11-.41-.23-.79-.26-.87-.04-.08-.04-.15-.04-.15,0-.08.08.19.26.87.11.41.23.75.23.75.04.04,0-.15-.04-.23-.04-.04-.04-.08-.04-.08v-.11c0-.08-.04-.19-.04-.26v-.15s-.38-1.58-.49-2.15c-.08-.3-.11-.56-.11-.56,0,0-.08.26-.15.56-.08.34-.15.56-.19.56s-.04,0-.04.04c.04.08,0,.3-.04.26v.04s0,.19-.04.34c-.04.19-.08.26-.08.23q-.04-.08-.04,0c-.04.23-.53,2.15-.72,2.86-.41,1.51-1.17,3.84-1.47,4.59-.23.56-.83,1.66-.94,1.69-.04,0,0-.08.08-.19.15-.19.19-.3.11-.23-.04.04-.15.08-.23.08-.19.04-.3.15-.23.23.04.04.08.08.11.08s.08,0,.08.04c-.04.04-.15.04-.23,0h-.19c-.15,0-.38-.08-.45-.15-.04-.04-.15-.08-.26-.08-.23,0-.83-.15-.98-.23-.23-.11-.38-.19-.53-.26-.41-.19-.87-.6-1.17-1.13-.08-.11-.15-.23-.19-.26s-.04-.08-.04-.11-.04-.08-.08-.11c-.08-.08-.11-.04-.04.04.04.04,0,.04-.04,0-.15-.11-.49-.64-.68-.98-.08-.15-.23-.49-.34-.72s-.26-.53-.34-.64c-.34-.53-.49-.98-1.05-3.09-.26-.94-.38-1.28-.9-2.86-.49-1.51-.6-1.84-.9-2.97-.11-.45-.3-1.2-.45-1.66-.41-1.32-.49-1.54-.68-2.45-.11-.49-.23-1.02-.26-1.17-.08-.34-.08-.38,0-.3.04.04.08.08.08.08.04-.04-.11-.94-.15-1.13-.04-.08-.11-.41-.15-.72-.04-.3-.08-.64-.11-.71-.04-.15-.04-.72,0-.56,0,.04.04.23.08.38l.08.3v-.68c0-.45,0-.68.04-.68s.08.11.08.26.04.38.08.49c.04.11.04.15.04.08v-.56c-.04-.41-.04-.45,0-.41.04.04.08.15.11.3.04.15.08.26.08.23.04-.11.11-.04.15.15.04.26.08.3.04.08,0-.19.08-.45.15-.45.15,0,.3.08.38.19.04.08.08.11.08.08,0-.08.19.11.26.26.04.08.08.11.08.08s.04,0,.11.08c.04.08.11.15.15.19.11.08.45.49.6.72.08.11.15.26.19.34.04.08.19.38.34.68.15.3.41.87.6,1.24s.41.87.49,1.05c.19.41.94,2.22,1.39,3.43.26.64.34.79.49,1.17.45,1.05.68,1.62,1.09,2.82.23.6.75,1.96.9,2.26l.08.15.04-.08c.19-.38,1.24-3.01,1.62-4.03.3-.87.34-1.02.72-2.33.6-2.15,1.32-4.48,2.07-6.85.23-.75.49-1.54.56-1.73.08-.19.11-.34.11-.34,0,0-.34,1.17-.75,2.45-.45,1.43-1.62,5.42-1.92,6.62-.19.75-.49,1.69-.68,2.22-.11.26-.19.49-.19.49,0,.08.08-.11.26-.68.3-.83.41-1.2.72-2.26.41-1.51,1.24-4.37,1.66-5.68.53-1.66.83-2.67,1.02-3.24.15-.53.26-.83.34-.83h.19c.11,0,.15,0,.19.04.08.08.11.3.11.53q0,.19.11.19c.08,0,.11-.04.15-.11.11-.26.56-.19.56.08t.04,0c.08-.08.11-.08.23.04.08.08.11.11.11.23,0,.08,0,.15.04.15s.04-.04.04-.08.04-.08.08-.11c.04-.04.08,0,.15.15.04.08.08.15.08.15,0,0,.08.04.15.08.11.08.15.11.19.23.04.11.04.15.04.08.04-.11.11-.11.11,0,0,.04.04.08.08.08s.08.08.08.15.04.11.04.08q.04-.15.08-.08s.04.72.04,1.51c.04,1.84.08,2.33.15,3.05.08.98.56,5.31.68,6.06.11.79.34,1.96.38,1.92,0,0-.04-.19-.08-.41-.08-.45-.19-1.13-.26-1.81-.08-.53-.38-3.31-.38-3.43s.04-.08.04.04.04.45.08.68c0,.08.04.3.08.56v.26c.04.23.23,1.58.23,1.69,0,.08.04.23.08.38s.08.3.08.34.04.19.08.34c.08.45.41,2.15.56,2.79.3,1.2.45,1.77.53,1.77s.15-.11.11-.19v-.04s.19-.23.6-1.17c.41-.94.68-1.69,1.13-3.01.75-2.26,1.09-3.24,1.32-3.8.11-.34.3-.83.38-1.09.08-.26.23-.68.3-.9.08-.23.23-.6.3-.83.08-.23.26-.68.41-1.02.15-.34.34-.75.41-.9.08-.15.23-.56.38-.9.15-.34.38-.98.53-1.43.26-.87.49-1.39.72-1.84.19-.34.3-.53.15-.23-.23.45-.49,1.09-.79,2.03-.19.53-.41,1.13-.49,1.32-.08.19-.23.56-.34.83s-.3.79-.45,1.17c-.34.83-.64,1.66-1.05,2.82-.19.49-.38,1.05-.45,1.28-.15.41-.72,2.15-1.13,3.5-.15.49-.38,1.13-.49,1.43-.11.3-.19.56-.19.56.04.04.45-1.13.83-2.26.68-2.11,1.05-3.2,1.36-3.95.15-.41.26-.79.26-.83,0-.08.79-2.11,1.05-2.71.15-.3.34-.79.45-1.05s.26-.68.34-.87c.08-.19.3-.79.49-1.32.38-1.13.56-1.58.83-2.11.23-.41.53-.79.53-.68q0,.08.04,0s.08-.08.11-.08,0,.08-.19.45c-.23.41-.64,1.35-.68,1.54,0,.04.08-.11.19-.34.15-.34.41-.79.49-.87,0,0-.08.15-.15.3-.19.3-.3.56-.26.53.04,0,.04-.04.04-.04,0-.04.3-.6.34-.6s0,.11-.15.41c-.34.6-.68,1.43-1.09,2.63-.26.83-.87,2.45-1.24,3.43-.34.87-.68,1.77-1.13,3.05-.53,1.47-1.28,3.73-1.28,3.76s.15-.45.34-1.05c.19-.6.41-1.28.49-1.47.08-.19.26-.68.41-1.05.3-.87.83-2.3,1.17-3.12.38-.98,1.02-2.67,1.32-3.54.15-.45.38-1.05.49-1.35.23-.6.75-1.69.83-1.73.08-.04,0,.26-.19.64-.23.45-.38.79-.38.83,0,0-.04.08-.08.15-.11.26-.23.56-.41,1.13-.3.83-.6,1.66-.87,2.37-.11.34-.26.75-.34.94-.08.19-.19.53-.26.75-.08.23-.23.64-.34.9s-.19.53-.19.56c-.04.08-.11.3-.49,1.39-.11.38-.3.98-.41,1.32-.23.64-.64,1.92-.98,3.09-.26.83-.83,2.56-.87,2.6v.08s0,.04-.04.08c-.04.04-.04.08-.04.11v.08s-.04.04-.04.08,0,.08-.04.08h-.04l-.08.15c-.04.08-.08.19-.08.23s-.04.08-.04.11c-.04.04-.23.49-.23.49,0,0,.04-.08.08-.19.23-.6.3-.79.3-.75v-.04s0-.08.04-.08.11-.23.08-.26h.04s.11-.11.19-.26c.19-.49.38-.98.38-1.05v-.11h.04s.04-.04.04-.08,0-.08.04-.08v-.08s0-.08.04-.08h.04s0-.04.04-.08c.04-.04.04-.08.04-.08,0,0,0-.04.04-.08s.04-.08.04-.08c0,0,0-.08.04-.15.04-.08.04-.15.04-.15h.04s.04-.04.04-.08v-.08s.04-.04.04-.08,0-.08.04-.08h.04s0-.04.04-.08c.04-.04.04-.08.04-.08,0,0,0-.04.04-.08.04-.04.04-.08.04-.08,0,0,0-.04.04-.08.04-.04.04-.08.04-.08,0,0,0-.08.04-.15.04-.08.04-.15.04-.15,0,0,0-.04.04-.08s.04-.08.04-.08c0,0,0-.04.04-.08s.04-.08.04-.08v-.08c.04-.19.56-1.73,1.05-3.12.15-.41.34-.98.45-1.28.26-.79.75-2.07,1.02-2.75.34-.83.87-2.26,1.24-3.31.34-.98.41-1.2.68-1.81.19-.41.49-.98.53-1.02s0,.08-.08.23c-.19.38-.53,1.13-.49,1.13,0,0,.11-.23.11-.26,0,0,.08-.15.15-.34.08-.19.19-.41.23-.53.15-.3.34-.56.45-.56.15,0,.3.08.3.15,0,.04-.04.19-.11.3q-.11.26,0,.26c.08,0,.11-.08.23-.38.04-.15.11-.11.08.04-.04.15,0,.15.04.04.04-.15.08-.11.08.08,0,.26.08.34.15.19.04-.08.08-.11.08-.11.04,0,.15.23.15.34q0,.08,0,.04c0-.08.08-.08.11,0,0,.04.04.04.04.04.08-.04.15.08.15.23q0,.23.04.19s.08-.08.11-.08c.08,0,.11.15.11.41q0,.08.04,0v-.15c0-.19.08-.08.08.11,0,.26-.08.6-.34,1.51-.34,1.2-.41,1.43-.75,2.26-.3.75-.75,2.07-1.05,3.05-.08.3-.23.75-.3.98-.19.53-.49,1.54-.49,1.54,0,0,.04-.11.08-.26.04-.15.08-.26.08-.23,0,.11-.23.72-.26.68t-.04.04s-.04.15-.08.3c-.04.15-.08.26-.08.23s-.04,0-.08.08c-.04.08-.04.15-.04.15v-.11s-.11.6-.38,1.39c-.08.26-.23.79-.34,1.17l-.34.41ZM144.64,5.84c-.04-.08-.08-.15-.08-.15,0,0,0,.08.04.15.04.08.08.15.08.15,0,0,0-.08-.04-.15ZM144.76,5.2s0-.08-.04-.15c-.04-.08-.08-.11-.08-.08,0,.08.08.3.11.26v-.04ZM144.87,3.96v-.11s0,0,0,.04,0,.08,0,.04v.04ZM154.66,14.42s-.15.34-.34.83c-.19.49-.45,1.24-.6,1.66-.15.41-.34.94-.41,1.17-.08.23-.23.64-.34.94-.11.3-.19.56-.19.56,0,.08.08-.08.23-.41.34-.83,1.66-4.63,1.66-4.74ZM157.1,5.77c.53-1.77.64-2.22.56-2.18,0,0-.08.19-.15.41-.26.9-1.24,4.22-1.43,4.86-.04.11-.15.49-.26.83-.38,1.35-.49,1.73-.87,3.12-.49,1.88-.79,2.82-1.47,4.82-.15.49-.3.87-.3.87,0,.08.04,0,.11-.23.04-.15.08-.3.08-.3v-.08h.08s0-.04.04-.04.04-.04.04-.04h.04s.04-.04.04-.08,0-.08.04-.08h.04l.08-.23c.04-.11.08-.23.08-.23,0,0,0-.04.04-.08s.08-.11.08-.15v-.11h.08v-.26s.04-.08.08-.08h.04s0-.04.04-.08.04-.08.04-.08c0,0,.04-.15.11-.34.08-.19.11-.34.11-.34,0,0,0-.04.04-.08.04-.04.04-.08.04-.08h.04s.04-.04.04-.08,0-.08.04-.08v-.08s0-.08.04-.08h.04s0-.04.04-.04v-.15s.08-.15.08-.23c0,0,0-.04.04-.08.04-.04.04-.08.04-.08,0,0,0-.08.04-.15.04-.08.04-.15.04-.15h.04s.04-.04.04-.08v-.08s.04-.04.04-.08v-.26s.04-.08.04-.08v-.19c.04-.11.04-.19.04-.19l.08-.08s.04-.04,0-.04-.04,0,0,0c.04-.04.11-.26.08-.26,0,0,0-.04.04-.08s.04-.08.04-.11v-.08s.08-.15.08-.26v-.26s.04-.04.04-.08v-.08s.04-.04.04-.08,0-.08.04-.08h.04s0-.08.04-.15c.04-.08.04-.15.04-.15,0,0,0-.04.04-.08.04-.04.04-.08.04-.08,0,0,0-.04.04-.08.04-.04.04-.08.04-.08,0,0,.04-.11.08-.26s.08-.26.08-.26c0,0,.04-.08.08-.19.04-.11.08-.23.08-.23,0,0,0-.04.04-.08.04-.04.04-.08.04-.08,0,0,0-.04.04-.08s.04-.08.04-.08c0,0,.04-.08.08-.19l.08-.23v-.26s.04-.19.08-.34c.04-.15.08-.3.08-.34v-.15c0-.08.08-.38.9-3.16l-.38.3ZM153.53,18.3s-.04.11-.04.15q0,.08.04.04s.04-.11.04-.15q0-.08-.04-.04ZM154.69,14.27v.08-.08s0-.04,0,0ZM157.25,3.43c.15-.49.15-.56.15-.79v-.23s-.04.11-.08.26c-.11.26-.11.34-.04.23.04-.04.08-.08.11-.08s.04.04,0,.08c-.04.04-.08.11-.11.19l-.04.11.08-.11q.11-.11,0,.15c-.11.26-.3.9-.98,3.12-.79,2.71-1.2,4.18-.98,3.58.04-.08.08-.15.08-.15v-.08q0-.08.04-.08s.04-.04.04-.11,0-.08.04-.04t0-.04.04-.04s.04,0,.04-.04c-.04-.08,0-.26.04-.23v-.08s0-.04.04,0t.04-.04q0-.08.04-.04s.04.04.04,0,0-.11.04-.15.04-.08.04-.08c0,0,0-.04.04-.08.04-.04.08-.08.08-.08v-.23s.04-.04.04-.08c.04-.04.15-.38.26-.75s.3-1.05.45-1.51c.15-.45.34-1.09.41-1.39.08-.3.23-.79.34-1.09l-.26-.15ZM155.37,11.83v.08-.08s0-.04,0,0ZM155.48,11.49s0,.04.04,0v-.11s0-.04-.04,0v.11ZM155.64,10.96s.04-.11.04-.19,0-.08-.04-.04c0,.04-.04.11-.04.19s0,.08.04.04ZM155.71,10.59s0,.04.04,0v-.11s0-.04-.04,0v.11ZM155.79,10.17c-.04.23-.04.26.04.08.04-.08.08-.15.11-.15s.04,0,0,0-.08.04-.11.15l-.04-.08ZM157.37,3.81v.08s.04-.15.08-.34c.04-.19.15-.49.23-.68.19-.49.23-.56.19-.53-.04.04-.26.72-.38,1.13-.04.15-.08.3-.08.34h-.04ZM157.52,2.27v.56c.04.08.08-.11.04-.34-.04-.26-.11-.41-.11-.23h.08ZM157.59,3.02s-.04.04-.04.04t.04.04s.04-.04.04-.08,0-.04-.04-.04v.04ZM157.59,3.25s.04-.08.04-.08h-.04s-.04.04-.04.08,0,.04.04,0ZM157.93,16.53s-.04-.38-.11-.83c-.11-.64-.15-.79-.19-.72-.04.08,0,.3.11.79.08.38.15.72.15.72l.04.04ZM157.67,16.76s0-.04,0,0v.08-.08ZM157.97,16.72v-.11s0,0,0,.04,0,.08,0,.04v.04ZM158.35,19.17c.04.08.08.08.08,0v-.11s0-.08-.04-.08v.19h-.04ZM158.5,2.94s.04-.04.04-.08q0-.08-.04-.04c-.04.08-.04.15,0,.11ZM159.93,5.13s0,0,0,.08,0,.11,0,.08v-.15ZM160.45,12.96s-.04-.64-.11-1.35c-.3-2.79-.3-3.05-.34-4.82l-.04-1.47v1.17c0,1.73.04,2.3.34,5.01.08.79.15,1.47.15,1.51s0,.04,0,0v-.04ZM160.49,13.18v-.11s0,0,0,.08,0,.11,0,.08v-.04ZM160.53,13.41s0-.04,0,0v.08-.08ZM161.24,16.95s0-.04,0,0v.08-.08ZM162.71,20.71c-.19.38-.19.41-.15.41,0,0,.08-.15.15-.34q.23-.49,0-.04v-.04ZM162.6,21.46c-.04.15.41-.83.68-1.47.15-.38.38-.98.53-1.36.23-.64.83-2.52.83-2.6,0-.04-.19.53-.41,1.2-.45,1.43-1.09,3.09-1.47,3.88-.04.11-.08.23-.08.26l-.08.08ZM162.64,21.24c-.04.11.15-.23.3-.56.08-.19.15-.34.15-.34,0,0-.41.87-.45.98v-.08ZM163.13,20.94c.04-.08.04-.15.04-.15,0,0-.11.23-.11.26s.04-.04.08-.15v.04ZM163.16,20.15s-.08.08-.08.08c0,.04.04,0,.08-.04.04-.04.08-.08.08-.11s-.04,0-.08.04v.04ZM163.35,20.45s-.19.3-.19.34.08-.08.15-.23c.04-.08.04-.11.04-.11ZM163.24,19.88v.11s0,.04.04,0,.04-.08.04-.11,0-.04-.04,0h-.04ZM164.78,15.93v.08-.08s0-.04,0,0ZM166.55,21.73s.04-.08.04-.11,0-.04-.04,0v.11s0,.04.04,0h-.04ZM167.27,19.81s0-.04-.04,0-.04.08-.04.11.08-.08.08-.15v.04ZM167.42,19.24s0-.04,0,0v.08-.08ZM167.45,19.09s0-.04,0,0v.08-.08ZM167.53,18.83s0-.04,0,0v.08-.08ZM167.72,8.59s.04-.08.04-.08c0,0-.04.04-.04.08t0,0ZM168.09,7.61s-.34.83-.34.87c0,.08.04,0,.19-.38.08-.23.15-.41.15-.41v-.08ZM169.71,3.51v.11s0,.04.04,0,.04-.08.04-.11,0-.04-.04,0h-.04ZM169.83,3.4s.04,0,.08-.08c.04-.08.08-.15.08-.19s-.04,0-.08.08c-.04.08-.08.15-.08.19ZM170.01,4v.11s0,.04.04,0c.04-.04.04-.08.04-.11s0-.04-.04,0h-.04ZM170.13,3.77s.04-.08.04-.08c0,0-.04.04-.04.08t0,0ZM170.35,2.72s.04-.08.08-.15c.04-.08.08-.15.08-.15,0,0-.04.08-.08.15-.04.08-.08.15-.08.15Z"/>
    <path class="cls-1" d="M175.4,17.96c-.45-.9-.68-1.47-.9-2.37-.45-1.84-.56-4.63-.23-6.25.15-.75.34-1.28.79-2.18.9-1.77,1.73-2.9,3.16-4.33.87-.83,1.58-1.35,2.41-1.77.98-.49,1.84-.72,3.46-.94.08,0,.23-.04.34-.04.75-.11,1.58-.08,2.26.15.34.11.41.11.75,0,.11-.04.38-.08.6-.08.34,0,.45,0,.72.08.53.11.94.34,1.39.75.11.11.34.26.49.34.56.26,1.02.64,1.54,1.24.19.23.49.56.68.75.75.75,2.03,2.63,2.63,3.8.38.79.83,1.88.9,2.3,0,.08.04.15.08.19.04.04.04.08.04.08,0,0,.04.11.08.23l.08.23s.11.41.08.49c0,.04-.04-.04-.08-.26-.08-.34-.23-.83-.23-.79,0,0,.04.23.08.49.23,1.24.3,2.48.26,3.91,0,.49-.04,1.13-.08,1.39-.04.26-.08.49-.08.49.04.04.15-.68.23-1.28.08-.72.04-2.26-.04-3.01-.04-.3-.04-.49,0-.53.08-.08.19.94.23,1.99.04.9-.04,2.15-.19,2.9-.08.38-.34,1.32-.49,1.73-.26.72-1.02,2.22-1.47,3.01-.49.79-.68,1.09-1.17,1.66-.23.3-.45.6-.49.68-.11.15-.68.72-.98.98-.15.11-.3.23-.34.26-.15.11-.23.19-.53.41-.15.11-.3.23-.3.23h-.04v.04s-.04.04-.08.04-.08,0-.08.04,0,.04-.04.04-.04,0-.04.04-.04.08-.08.08-.08.04-.08.04h-.08s-.23.15-.26.15c0,0-.04,0-.04.04-.04.08-1.05.49-1.39.56h-.3q-.23.04-.45.08h-.41c-.15.04-1.62.08-1.62.04h-.19c-.23-.04-.34-.04-.45-.08h-.45s-.11-.04-.15-.08c-.04-.04-.08-.04-.08-.04,0,0-.08-.04-.15-.08l-.15-.08s-.08-.04-.19-.08c-.11-.04-.23-.08-.26-.08s-.15-.04-.26-.08c-.11-.04-.38-.11-.6-.19-.38-.11-.79-.26-1.66-.64-1.13-.49-2.37-1.32-3.27-2.26-.75-.75-1.17-1.32-1.69-2.26-.11-.19-.26-.49-.38-.64-.19-.3-.34-.6-.83-1.62l.04.08ZM178.03,5.84s.08-.04.11-.08t0-.04s-.08.04-.11.08t0,.04ZM178.26,5.5c-.23.34-.04.15.34-.34.23-.26.45-.53.53-.6.08-.08.11-.15.11-.15-.04-.04-.71.75-.98,1.13v-.04ZM179.99,3.62c-.19.19-.11.19.15,0,.11-.11.3-.26.41-.34.23-.19,1.17-.75,1.43-.87.11-.04.19-.08.19-.08-.04-.04-.87.38-1.02.49-.08.04-.26.15-.41.26-.34.19-.64.41-.83.6l.08-.08ZM187.25,4.15c-.45.15-1.51.64-1.47.68,0,0-.08.04-.15.11-.08.08-.15.15-.15.15,0,0-.08.08-.15.15-.08.08-.19.15-.23.19-.04.04-.15.11-.23.19-.26.19-1.28,1.24-1.66,1.69-.72.9-1.17,1.66-1.54,2.52-.49,1.05-.83,2.07-1.02,2.97-.11.53-.15.75-.23,1.35-.11.98-.11,2.9,0,3.61v.26c.08.79.45,2.22.56,2.26.26.08.79.19,1.17.23h.23c.72.11,1.39.11,2.18.04.41-.04,1.09-.15,1.28-.23.08-.04.15-.04.15-.04h.08c.08,0,1.28-.45,1.66-.6.34-.15,1.2-.6,1.54-.83.3-.19.6-.45,1.05-.87.45-.41.56-.53,1.02-1.13s.68-.98.87-1.39c.08-.19.19-.45.26-.6.41-.9.68-2.07.79-3.58.04-.72.04-.9,0-1.54-.08-.98-.11-1.28-.3-1.99-.11-.45-.3-.83-.68-1.39-.68-1.02-1.43-1.88-2.18-2.56l-.19-.15h-.45c-.34,0-.45,0-.49.04-.04.04-.11.08-.19.08-.49,0-.94.11-1.62.38h.08ZM180.55,3.13l.08-.04s.11-.08.15-.11l.08-.08-.08.04s-.11.08-.15.11l-.08.08ZM181.95,2.23c-.15.08-.26.15-.26.15,0,.04.08.04.23-.04.3-.15.49-.23.75-.3.45-.15,1.13-.38,1.58-.49.23-.08.56-.15.72-.19l.3-.08-.23.04c-.72.08-2.3.56-3.05.94l-.04-.04ZM182.29,2.34s-.04,0,0,0,.08,0,.11-.04t0-.04h-.11v.08ZM184.39,1.29s0,.04.34-.04c.19-.04.6-.08.9-.08l.56-.04-.34-.04h-.56c-.26.04-.9.15-.94.19h.04ZM185.63,1.4s.23.04.41,0c.11,0,.15,0,.11-.04-.08-.04-.53.04-.53.08v-.04ZM185.86,22.07s-.04,0,0,0h.08-.08ZM186.01,22.03s-.04,0,0,0h.08-.08ZM191.24,18.98c.26-.34.64-.9.45-.68-.04.04-.19.23-.34.41-.53.6-1.43,1.47-1.88,1.81-.19.15-.26.19-.23.11v-.04.08c0,.08-.34.3-.34.26s-.11,0-.26.11c-.53.3-2.3,1.02-2.6,1.05-.08,0-.08.08,0,.08.04,0,.19-.04.34-.08.38-.11.6-.19.72-.26.08-.04.15-.08.19-.08s.15-.04.23-.08.15-.08.19-.08.04,0,.04-.04,0-.04.04-.04c.04.04.64-.26.98-.49.11-.08.23-.11.23-.11,0,0-.26.19-.79.49-.15.08-.26.15-.26.15.04.04,1.66-.94,1.77-1.09,0,0,.11-.08.23-.15.3-.23,1.17-1.05,1.51-1.47l-.19.11ZM187.74,21.69s.04-.04,0-.04h-.11s-.04,0,0,0,.08,0,.11-.04v.08ZM190.3,1.48c-.15-.08-.04,0,.19.11q.19.08.19.04s-.23-.15-.34-.19l-.04.04ZM191.54,21.99s0-.04-.04-.04-.04.04-.04.08,0,.04.04.04.04-.04.04-.08ZM191.69,21.88c.08-.08.15-.15.15-.15,0,0-.08.08-.19.19l-.08.08s.08-.04.15-.11h-.04Z"/>
  </g>
</svg>